<svg xmlns="http://www.w3.org/2000/svg" width="91.899" height="91.899" viewBox="0 0 91.899 91.899"><defs><style>.a{fill:#f6f7f7;}.b{fill:#50c6f1;}</style></defs><path class="a" d="M45.95,0A45.95,45.95,0,1,1,0,45.95,45.95,45.95,0,0,1,45.95,0Z"/><g transform="translate(27.542 26.686)"><g transform="translate(0 5.814)"><path class="b" d="M18.476,34.856a4.74,4.74,0,0,1-6.7,0L1.388,24.471a4.739,4.739,0,0,1,6.7-6.7l6.188,6.187a1.2,1.2,0,0,0,1.693,0L32.726,7.2a4.739,4.739,0,1,1,6.7,6.7Z" transform="translate(0 -5.814)"/></g></g></svg>