<svg xmlns="http://www.w3.org/2000/svg" width="792.857" height="534.836" viewBox="0 0 792.857 534.836"><defs><style>.a{fill:#d4deff;}.b{fill:#f1f6fe;}.c{fill:#2baddc;}.d{fill:#40a1c5;}.e{fill:#50c6f1;}.f{fill:#fff;}.g{fill:#ffc0bb;}.h{fill:#1f1f1f;}.i{fill:#95a6db;}.j{opacity:0.2;}.k{fill:#193f1e;}.l{fill:#768fdb;}</style></defs><g transform="translate(0)"><path class="a" d="M234.745,98.611a27.534,27.534,0,1,1-18.992-9.131A27.529,27.529,0,0,1,234.745,98.611Z"/><path class="b" d="M227.125,134.033l-3.5-3.908a15.123,15.123,0,0,1-7.444,3.6L214.79,130.3a13.835,13.835,0,0,0,7.061-3.323c2.747-2.458,3.185-5.707,1.212-7.912-1.9-2.129-4.591-2.094-8.493-.692-5.332,1.984-9.362,2.385-12.375-.982-2.874-3.212-2.772-7.692.268-11.458l-3.5-3.908,2.4-2.147,3.359,3.753a13.87,13.87,0,0,1,6.242-3.147l1.319,3.42a12.55,12.55,0,0,0-6.053,3.047c-2.98,2.666-2.509,5.45-1.124,7,1.8,2.012,4.132,1.737,8.745.118,5.44-1.941,9.252-1.729,12.334,1.714,2.735,3.057,3.169,7.825-.228,12.049l3.6,4.025Z"/><path class="b" d="M34.364,523.263S-33.917,458.9,22.019,394.754c14.184-16.267,43.66-23.386,45-44.6,2.8-44.169-26.517-77.069,4.754-122.265C113.758,167.206,155.241,182.83,215.2,176.1c42.3-4.746,51.124-34,84.512-59.484,121.047-92.375,221.255-9,283.526,50.849,46.669,44.849,89.58-25.541,158.628,65.931,42.445,56.228,2.4,86.474-.748,124.212-3.393,40.72,40.817,60.371,46.383,86.75,9.91,46.968-9.725,78.046-9.725,78.046Z"/><path class="c" d="M784.544,534.836H20.016a8.738,8.738,0,0,1,0-17.466H784.544a8.738,8.738,0,0,1,0,17.466Z"/><path class="d" d="M152.238,496.782a64.864,64.864,0,1,0-10.143-48.6,64.864,64.864,0,0,0,10.143,48.6Z"/><path class="e" d="M161.808,490.258a53.3,53.3,0,0,0,90.15-3.339A54.274,54.274,0,0,0,254.467,482a53.292,53.292,0,0,0-92.034-52.693,52.719,52.719,0,0,0-2.966,4.651,53.377,53.377,0,0,0,2.341,56.3Z"/><path class="a" d="M162.433,429.311,254.467,482a53.392,53.392,0,0,0,1.624-39.464l-60.444-34.607a53.467,53.467,0,0,0-33.214,21.378Z"/><path class="a" d="M154.047,447.7l88.813,50.851a52.836,52.836,0,0,0,9.1-11.631l-92.491-52.961a53.24,53.24,0,0,0-5.422,13.741Z"/><path class="f" d="M220.388,402.133c5.847,4.864,6.278,6.374,3.842,13.489,4.763-5.819,6.273-6.249,13.489-3.842-5.848-4.864-6.278-6.374-3.843-13.489C229.012,404.138,227.5,404.567,220.388,402.133Z"/><path class="b" d="M70.772,512.361v8.252a5.839,5.839,0,0,0,5.838,5.838H177.328a5.838,5.838,0,0,0,5.839-5.838v-8.252a5.837,5.837,0,0,0-5.839-5.839H76.61a5.838,5.838,0,0,0-5.838,5.839Z"/><path class="d" d="M177.584,506.523h-2.925v19.928h2.925Z"/><path class="d" d="M165.316,506.523h-2.925v19.928h2.925Z"/><path class="d" d="M153.048,506.523h-2.925v19.928h2.925Z"/><path class="d" d="M140.781,506.523h-2.926v19.928h2.926Z"/><path class="d" d="M128.512,506.523h-2.925v19.928h2.925Z"/><path class="d" d="M116.244,506.523h-2.925v19.928h2.925Z"/><path class="d" d="M103.976,506.523h-2.925v19.928h2.925Z"/><path class="d" d="M91.708,506.523H88.782v19.928h2.926Z"/><path class="d" d="M79.44,506.523H76.515v19.928H79.44Z"/><path class="d" d="M72.151,508.592H181.788a5.831,5.831,0,0,0-4.46-2.07H76.61a5.83,5.83,0,0,0-4.459,2.07Z"/><path class="d" d="M72.151,524.385H181.788a5.831,5.831,0,0,1-4.46,2.07H76.61a5.83,5.83,0,0,1-4.459-2.07Z"/><path class="b" d="M78.253,492.432v8.251a5.839,5.839,0,0,0,5.839,5.839H184.81a5.838,5.838,0,0,0,5.839-5.839v-8.251a5.837,5.837,0,0,0-5.839-5.839H84.091a5.837,5.837,0,0,0-5.839,5.839Z"/><path class="d" d="M185.066,486.593h-2.925v19.928h2.925Z"/><path class="d" d="M172.8,486.593h-2.925v19.928H172.8Z"/><path class="d" d="M160.529,486.593H157.6v19.928h2.925Z"/><path class="d" d="M148.261,486.593h-2.925v19.928h2.925Z"/><path class="d" d="M135.994,486.593h-2.926v19.928h2.926Z"/><path class="d" d="M123.725,486.593H120.8v19.928h2.925Z"/><path class="d" d="M111.457,486.593h-2.925v19.928h2.925Z"/><path class="d" d="M99.189,486.593H96.264v19.928h2.925Z"/><path class="d" d="M86.921,486.593H84v19.928h2.926Z"/><path class="d" d="M79.632,488.662H189.269a5.835,5.835,0,0,0-4.459-2.069H84.092a5.836,5.836,0,0,0-4.46,2.069Z"/><path class="d" d="M79.632,504.452H189.269a5.822,5.822,0,0,1-4.459,2.069H84.092a5.827,5.827,0,0,1-4.46-2.069Z"/><path class="b" d="M65.9,472.5v8.252a5.839,5.839,0,0,0,5.838,5.838H172.461a5.838,5.838,0,0,0,5.838-5.838V472.5a5.836,5.836,0,0,0-5.838-5.839H71.74A5.838,5.838,0,0,0,65.9,472.5Z"/><path class="d" d="M172.716,466.665h-2.925v19.928h2.925Z"/><path class="d" d="M160.448,466.665h-2.925v19.928h2.925Z"/><path class="d" d="M148.18,466.665h-2.925v19.928h2.925Z"/><path class="d" d="M135.913,466.665h-2.926v19.928h2.926Z"/><path class="d" d="M123.645,466.665h-2.926v19.928h2.926Z"/><path class="d" d="M111.376,466.665h-2.925v19.928h2.925Z"/><path class="d" d="M99.108,466.665H96.182v19.928h2.926Z"/><path class="d" d="M86.84,466.665H83.915v19.928H86.84Z"/><path class="d" d="M74.572,466.665H71.647v19.928h2.925Z"/><path class="d" d="M67.283,468.734H176.921a5.831,5.831,0,0,0-4.46-2.07H71.744a5.833,5.833,0,0,0-4.461,2.07Z"/><path class="d" d="M67.283,484.523H176.921a5.822,5.822,0,0,1-4.46,2.07H71.744a5.824,5.824,0,0,1-4.461-2.07Z"/><path class="g" d="M219.915,464.15l7.954,1.856s6.756,1.262,8.88-3.984-4.219-8.129-4.219-8.129l-10.119-3.649Z"/><path class="h" d="M232.82,452.2a38.035,38.035,0,0,0,7.729-7.586c1.975-2.618,6.962-9.719,11.587-6.147.69.533,1.236,1.564.967,3.88-.4,3.419-1.629,7.721-6.891,14.3-6.314,7.9-6,9.752-8.54,12.578-2.634,2.929-6.675-.775-10.332-3.531,1.072.377,4,1.113,9.208-4.007C238.1,460.163,229.253,458.022,232.82,452.2Z"/><path class="d" d="M158.666,433.569l65.93,14.778s1.163,14.771-4.41,17.82c-16.965-3.107-43.7-.742-55.039-13.443C149.953,435.712,158.666,433.569,158.666,433.569Z"/><path class="h" d="M115.015,349.85c-1-9.9-5.343-18.035-13.908-21.061-8.681-3.067-17.806,3.042-17.806,3.042s-8.9-1.506-15.017,8.187.915,16.041-1.118,22.683c-1.2,3.934-10.422,6.322-5.939,17.657,1.293,3.269,5.773,4.835,9.268,4.455,6.141-.668,11.38-4.009,14.254-2.1,9.468,6.307,26.946.351,28.217-7.165.394-2.33,17.3-.928,13.066-15.583C123.879,352.545,115.908,358.694,115.015,349.85Z"/><path class="g" d="M78.151,363.673c4.665,10.762,15.3,17.328,23.754,13.664s12.361-17.048,7.7-27.81-16.141-15.639-24.593-11.975S73.486,352.911,78.151,363.673Z"/><path d="M105.646,358.159a1.679,1.679,0,1,0-1.38-1.255,1.681,1.681,0,0,0,1.38,1.255Z"/><path d="M91.262,358.383a1.735,1.735,0,1,0-.32-1.288,1.732,1.732,0,0,0,.32,1.288Z"/><path class="h" d="M89.672,356.321a.6.6,0,0,0,.273-.291,4.6,4.6,0,0,1,3.2-2.3.6.6,0,1,0-.19-1.191,5.738,5.738,0,0,0-4.118,3,.6.6,0,0,0,.133.689.6.6,0,0,0,.7.091Z"/><path class="h" d="M108.982,354.413a.61.61,0,0,0,.167-.107.623.623,0,0,0,.142-.188.609.609,0,0,0,.057-.229.6.6,0,0,0-.156-.435,4.231,4.231,0,0,0-4.138-1.268.6.6,0,1,0,.325,1.162,3.025,3.025,0,0,1,2.917.915.6.6,0,0,0,.686.15Z"/><path d="M100.2,360.134a16.055,16.055,0,0,0,2.413,2.442.634.634,0,0,1,.183.852c-.716,1.181-2.725,2.107-3.955,2.584a.172.172,0,0,1-.116,0,.174.174,0,0,1-.089-.074.171.171,0,0,1,.037-.216,8.211,8.211,0,0,0,2.044-2.236.753.753,0,0,0,.092-.341.762.762,0,0,0-.073-.345c-.235-.5-.7-1.531-1.015-2.38a.285.285,0,0,1,.48-.287Z"/><path class="f" d="M93.383,369.092c-.079-.439.012-.859.455-.811a35.886,35.886,0,0,0,9.526-.1c.442-.058.555.362.473.8a5.262,5.262,0,0,1-5.074,3.9C96.043,372.909,93.683,370.726,93.383,369.092Z"/><path class="h" d="M75.971,360.9c10.284-3.263,26.144-16.037,26.385-21.756-3.2-6.258-15.862-6.4-21.452-2.263S70.046,353.362,75.971,360.9Z"/><path class="g" d="M79.753,357.741c2.244,1.6,3,4.393,1.685,6.229s-4.2,2.025-6.439.42-3-4.393-1.685-6.229S77.51,356.137,79.753,357.741Z"/><path d="M78.749,363.56a.6.6,0,0,0,.205-.186,2.728,2.728,0,0,0,.075-3.348,2.9,2.9,0,0,0-3.225-.963.6.6,0,1,0,.424,1.129,1.721,1.721,0,0,1,1.85.576,1.544,1.544,0,0,1-.117,1.921.6.6,0,0,0,.787.871Z"/><path class="h" d="M111.594,350.765s-7.131-.137-13.961-7.587a7.527,7.527,0,0,1,4.722-5.878Z"/><path class="g" d="M135.624,374.913c1.51,2.582,10.564,2.416,11.076,1.5,2.329-12.833-7.113-35.285-7.113-35.285l-4.741-1.133S136.843,358.41,135.624,374.913Z"/><path class="g" d="M118.347,402.407c7.657-4.192,27.936-23.308,28.4-26.431l-10.676-3.3S112,389.5,108.142,392.476C101.448,397.634,105.859,409.275,118.347,402.407Z"/><path class="g" d="M143.551,337.5c-1.3,1.613-3.426,2.938-3.238,4.969l-5.484-.134c-1.786-6.381,2.366-13.759,2.882-14.435,1.341-1.755,1.862-2.662,2.194-2.591s2.143.994.274,3.61c-2.345,3.283,1.813,3.477,5.04-4.58.808-2.018,4.122-4.178,4.286-2.152C149.687,324.414,149.474,330.156,143.551,337.5Z"/><path class="g" d="M202.3,511.539l3.17,3.2s5.049,4.663,9.638,1.353,1.083-10.975,1.083-10.975l-5.14-4.9Z"/><path class="g" d="M102.6,373.126s1.091,8.916,1.444,12.514l-12.82,2.884c.333-7.314.734-14.794.734-14.794Z"/><path class="d" d="M110.689,465.849l52.82-12.622s.045-13.8-2.955-18.69-51.725,5.707-51.725,5.707Z"/><path class="d" d="M88.39,434.759c-.795,3.615-4.492,14.635-2.385,22.577,2.174,8.2,9.439,14.289,19.326,12.206,0,0,16.63-14.258,8.355-35.239C113.686,434.3,103.161,432.383,88.39,434.759Z"/><path class="d" d="M104.222,471.724,152,467.036s14.775-9.918,13.563-15.668-51.551-12.349-51.551-12.349C84.715,436.319,82.156,472.526,104.222,471.724Z"/><path class="d" d="M165.561,451.369l46.753,48.579s-4.94,11.968-11.422,11.365c-17.5-14.871-46.821-26.946-48.894-44.275C149.544,446.516,165.561,451.369,165.561,451.369Z"/><path class="e" d="M91.544,383.006l13.959-.554c7.687,7.229,15.219,13.236,16.185,18.144,1.27,6.462-6.944,37.355-6.944,37.355-11.373,3.806-21.168,4.176-29.284.9,2.537-17.012-13.443-34.718-5.1-47.484C82.435,388.178,90.3,386.716,91.544,383.006Z"/><path class="h" d="M215.855,504.284a38.029,38.029,0,0,0,10.211-3.609c2.9-1.538,10.417-5.867,13.1-.675.4.775.46,1.94-.763,3.925-1.806,2.93-4.739,6.309-12.291,10.052-9.06,4.491-8.474,6.587-11.971,8.075-3.625,1.541-6.806-3.807-8.955-7.85.811.8,3.155,2.7,10.038.26C217.28,513.731,210.165,508.05,215.855,504.284Z"/><path class="g" d="M23.73,345.747c1.51,1.419,3.8,2.441,3.89,4.477l5.414-.886c.894-6.566-4.232-13.3-4.836-13.9-1.568-1.555-2.21-2.382-2.529-2.266s-1.986,1.278.224,3.613c2.774,2.93-1.318,3.693-5.621-3.845-1.077-1.888-4.656-3.573-4.541-1.544C15.857,333.631,16.856,339.29,23.73,345.747Z"/><path class="g" d="M48.06,381.893c-.274,3.354-9.537,7.6-10.5,6.923-8.615-11.881-9.98-39.252-9.98-39.252l4.256-3.459S38.781,365.749,48.06,381.893Z"/><path class="g" d="M77.228,406.6c-9.667-1.739-38.131-14.9-39.743-18.061L47.7,381.207s31.688,9.352,36.872,11.16C93.555,395.479,93.005,409.474,77.228,406.6Z"/><path class="a" d="M674.394,219.222a22.786,22.786,0,1,1,1.367-17.386,22.777,22.777,0,0,1-1.367,17.386Z"/><path class="b" d="M644.782,223.933l1.969-3.868a12.508,12.508,0,0,1-5-4.669l2.225-2.1a11.456,11.456,0,0,0,4.675,4.455c2.719,1.385,5.356.752,6.469-1.431,1.073-2.106.243-4.169-2.006-6.761-3.125-3.521-4.64-6.511-2.943-9.843,1.619-3.178,5.107-4.439,8.922-3.219l1.97-3.867,2.374,1.209-1.892,3.714a11.462,11.462,0,0,1,4.294,3.876l-2.245,2.039a10.382,10.382,0,0,0-4.161-3.759c-2.948-1.5-4.956-.306-5.736,1.226-1.015,1.991-.105,3.708,2.523,6.783,3.125,3.617,4.1,6.622,2.366,10.03-1.541,3.025-5.09,4.786-9.366,3.427l-2.024,3.99Z"/><path class="a" d="M557.93,115.425l18.257-25.741s17.854,3.808,23.514,25.76c3.508,13.607,20.093,22.521,20.093,22.521L601.44,163.841s-21.987-8.944-25.735-24.567a38.919,38.919,0,0,0-17.775-23.849Z"/><path class="b" d="M596.365,137.343c-5.422,3.507-13.134,1.222-17.226-5.1s-3.014-14.3,2.409-17.8,13.134-1.223,17.226,5.1S601.787,133.835,596.365,137.343Z"/><path class="e" d="M483.56,108.165l-24.811,8.072q.635,1.953,1.27,3.9c.613,1.886,6.7,1.6,13.586-.644s11.978-5.587,11.365-7.474C484.913,111.849,483.56,108.165,483.56,108.165Z"/><path class="a" d="M483.763,108.328c.614,1.886-4.475,5.232-11.364,7.474s-12.973,2.53-13.587.643,4.475-5.232,11.365-7.473S483.154,106.446,483.763,108.328Z"/><path class="f" d="M428.105,238.89A118.988,118.988,0,1,0,309.117,119.9,118.988,118.988,0,0,0,428.105,238.89Z"/><path class="a" d="M428.106,240.542a120.272,120.272,0,1,1,46.959-9.481A120.267,120.267,0,0,1,428.106,240.542Zm0-237.976a117.468,117.468,0,1,0,82.93,34.406,117.334,117.334,0,0,0-82.93-34.406Z"/><path d="M516.612,506.232c-7.2,9.608-24.892,3.713-24.306,16.707,26.9-.167,38.078,0,38.078,0A91.969,91.969,0,0,0,529.2,510.1Z"/><path d="M556.862,506.484c-7.2,9.608-24.891,3.713-24.306,16.707,26.9-.167,38.079,0,38.079,0a92.283,92.283,0,0,0-1.187-12.842Z"/><path class="h" d="M504.165,359.557s-4.367,61.578-2.593,75.267,8.056,31.242,7.344,76.523c8.769,2.123,21.473,0,21.473,0s1.883-51.2-7.386-74.072c3.769-22.214,15.864-73.1,15.864-73.1Z"/><path class="h" d="M520.762,361.239s8.819,69.132,13.135,82.244,12.735,24.2,20.551,68.808c9.011.436,19.75-1.783,19.75-1.783s-3.563-54.8-17.6-67.669c-.476-22.528,2.269-81.156,2.269-81.156Z"/><path class="g" d="M556.678,248.139c-4.78,11.945-16.26,18.584-25.641,14.83s-13.111-16.48-8.331-28.424,16.26-18.584,25.641-14.83S561.458,236.2,556.678,248.139Z"/><path d="M526.785,238.464a1.753,1.753,0,1,1,.288-1.314,1.753,1.753,0,0,1-.288,1.314Z"/><path d="M539.947,243.836a1.9,1.9,0,1,1,.312-1.422,1.872,1.872,0,0,1-.014.742,1.891,1.891,0,0,1-.3.68Z"/><path d="M529.453,241.268c-2.376,1.873-5.346,4.133-5.346,4.133a4.611,4.611,0,0,0,3.316,4.1c-1.211-1.1-2.274-2.56-1.014-4.247S529.453,241.268,529.453,241.268Z"/><path d="M543.411,242.692a.876.876,0,0,1-.853-.674c-.024-.093-.613-2.378-2.571-2.388a.876.876,0,0,1-.335-.068.9.9,0,0,1-.283-.191.877.877,0,0,1,.626-1.495c2.674.013,3.961,2.448,4.268,3.734a.878.878,0,0,1-.854,1.081Z"/><path d="M528.625,234.747a.732.732,0,0,1-.629-.357,2.123,2.123,0,0,0-1.269-.917,2.392,2.392,0,0,0-1.856.671.731.731,0,0,1-.913-1.141,3.742,3.742,0,0,1,3.044-.964,3.6,3.6,0,0,1,2.252,1.608.731.731,0,0,1-.263,1,.724.724,0,0,1-.366.1Z"/><path d="M553.343,249.386c-3.457-11.114.915-17.019.915-17.019-2.968-.594-4.121.433-4.121.433a6.6,6.6,0,0,1-.365-5.706c-6.134-2.391-9.188,1.581-14.723,2.919-7.579,1.833-16.94-1.19-17.817-10.442a1.581,1.581,0,0,1,2.464-1.458,6.966,6.966,0,0,0,4.128,1.207,7.446,7.446,0,0,1-1.67-4.269,1.579,1.579,0,0,1,2.608-1.23c1.575,1.312,4.5,2.551,9.71,1.574,3.469-.649,11.41-6.205,16.356-5.121,4.044.887,7.252,4.329,8.633,9.255A12.7,12.7,0,0,1,570.4,231.5c.979,10.747-11.469,18.994-11.469,18.994Z"/><path class="g" d="M551.985,247.532c-2.632,1.492-3.776,4.447-2.556,6.6s4.343,2.691,6.976,1.2,3.776-4.446,2.555-6.6S554.62,246.04,551.985,247.532Z"/><path d="M552.414,254a.669.669,0,0,1-.2-.226,2.992,2.992,0,0,1,.3-3.661,3.187,3.187,0,0,1,3.63-.679.661.661,0,1,1-.593,1.182,1.888,1.888,0,0,0-2.084.416,1.7,1.7,0,0,0-.094,2.109.662.662,0,0,1-.959.859Z"/><path class="f" d="M524.652,253.323a.567.567,0,0,1-.085-.311.552.552,0,0,1,.1-.306.565.565,0,0,1,.253-.2.559.559,0,0,1,.321-.026,39.722,39.722,0,0,0,10.5.937.571.571,0,0,1,.312.083.563.563,0,0,1,.214.242.56.56,0,0,1-.093.61,6.988,6.988,0,0,1-11.528-1.029Z"/><path class="h" d="M512.027,268.975s.448-1.217-38.262-.9l-10.377,12.266c10.741,8.613,46.713,10.143,46.713,10.143Z"/><path class="i" d="M526.093,267.976l12.209-1.14,11.812,3.294L536.8,283.83Z"/><path class="g" d="M530.326,274.266c4.976,4.085,5.993,6.909,16.563,1.448l1.585-16.251-17.207-1.357Z"/><path class="e" d="M553.249,276.668l-3.618-1.432.484-5.11-10.037,8.06-2.834.451-2.709-.948-8.442-9.718-.433,5.115-3.193.64-11.513,1.865-1.37,63.9-4.542,21.742c15.277,5.081,32.361,6.35,49.156,4.035l-.564-21.826,11.93-62.453Z"/><path class="h" d="M535.037,285.1l-7.213,48.79,3.994,5.548,5.207-4L538.8,285.5Z"/><path class="h" d="M534.607,279.337l2.636-.7,2.686,1.172-1.136,5.785-3.78-.34Z"/><path class="h" d="M525.925,268.384l-1.808,58.938-7.8,37.952s-12.338-1.244-19.918-8.457l9.714-28.571,3.322-59.7Z"/><path class="e" d="M525.924,268.384l-1.8,58.147-8.979-44.562Z"/><path class="h" d="M551.037,272.155,535.017,367.7s21.259,2.611,30-3.138l-4.744-31.409,5.8-53.325Z"/><path class="e" d="M551.037,272.155l-9.363,56L558.439,285.9Z"/><path class="g" d="M445.18,215.963c.852,2.982,1.106,6.2,4.888,7.8,0,0-.559,9.892-.142,18.009,0,0,9.151-10.319,9.149-10.327a54.447,54.447,0,0,1-.444-12.969c.131-.911.31-1.819.452-2.733.394-2.219,1.046-4.489-.3-7.166-5.222-10.345-3.464-13.749-4.183-14.254-1.169-.515-3.917,1.566-2.363,6.65,1.5,4.919,1.132,7.333,1.132,7.333s-3.946-.745-5.347.635C447.379,209.572,444.183,212.477,445.18,215.963Z"/><path class="h" d="M447.3,229.908c5.333-1.777,8.14-2.578,12.287-2.578,9.8,29.219,16.793,40.227,13.879,48.616-2.43,6.993-10.12,6.434-13.879,1.194C454.63,270.225,450.239,243.965,447.3,229.908Z"/><path class="h" d="M566.072,279.833l30.889,48.326,36.687,20.715-11.307,11.258L585.534,344l-25.26-35.641Z"/><path class="f" d="M537.244,278.642s-4.544,4.588-8.722,5.762l-4.941-13.064,2.512-3.364Z"/><path class="f" d="M537.244,278.641a21.91,21.91,0,0,0,7.558,7.222l7.188-11.938-1.876-3.8Z"/><path class="d" d="M432.447,32.683a16.1,16.1,0,1,1,.245-12.316,16.093,16.093,0,0,1-.245,12.316Z"/><path class="b" d="M429.814,31.53a13.227,13.227,0,0,1-22.14,3.318,13.64,13.64,0,0,1-.837-1.085,13.223,13.223,0,1,1,22.978-2.233Z"/><path class="d" d="M402.6,97.525a19.171,19.171,0,1,1,1.607-7.308A19.163,19.163,0,0,1,402.6,97.525Z"/><path class="b" d="M399.461,96.151a15.758,15.758,0,0,1-26.377,3.953,16.2,16.2,0,0,1-1-1.292,15.756,15.756,0,0,1,23.865-20.338,15.455,15.455,0,0,1,1.116,1.19,15.78,15.78,0,0,1,2.394,16.487Z"/><path class="d" d="M536.309,110.07a19.171,19.171,0,1,1,1.607-7.308,19.167,19.167,0,0,1-1.607,7.308Z"/><path class="b" d="M533.172,108.7a15.76,15.76,0,0,1-26.377,3.953c-.354-.413-.688-.845-1-1.292A15.756,15.756,0,0,1,529.66,91.02a15.234,15.234,0,0,1,1.115,1.19A15.778,15.778,0,0,1,533.17,108.7Z"/><path class="f" d="M517.048,118.668c-1.7-.354-2.035-.216-2.962,1.234.363-1.682.226-2.013-1.233-2.962,1.7.354,2.035.216,2.962-1.233C515.459,117.41,515.6,117.742,517.048,118.668Z"/><path class="d" d="M482.893,60.127,472.014,89.151,437.8,180.421l-3.542,9.45-10.221-3.784-56.713-20.994L393.571,95.28l13.361-35.542.155-.418,37.869-13.238Z"/><path class="b" d="M432.417,54.255l25.677,9.5a12.017,12.017,0,0,0,7.1,15.439l-31.944,84.67a12.019,12.019,0,0,0-15.441,7.1l-25.676-9.506a12.017,12.017,0,0,0-7.1-15.439l31.944-84.67a12.016,12.016,0,0,0,15.44-7.094Z"/><path class="d" d="M432.674,90.306a19.944,19.944,0,1,1-7.685-1.226A19.944,19.944,0,0,1,432.674,90.306Z"/><path class="d" d="M444.955,46.084l-15.07,27.26-22.954-13.6-.387-.228.542-.189Z"/><g class="j"><path class="k" d="M403.562,68.843l26.324,4.5-22.954-13.6Z"/></g><g class="j"><path class="k" d="M444.955,46.084l-15.068,27.26,17.586-26.328Z"/></g><g class="j"><path class="k" d="M472.014,89.152,437.8,180.422l-13.764,5.666-56.713-20.994L393.57,95.281h12.167c4.6,0,8.507,7.117,9.965,17.054Z"/></g><path class="d" d="M502.15,80.931,348.035,144.38l27.172,66L529.322,146.93Z"/><path class="b" d="M499.411,105.846l10.424,25.318a12.016,12.016,0,0,0-6.536,15.684L393.629,192a12.017,12.017,0,0,0-15.686-6.537l-10.422-25.318a12.017,12.017,0,0,0,6.537-15.684L483.727,99.311a12.014,12.014,0,0,0,15.684,6.535Z"/><path class="d" d="M456.1,136.989a19.943,19.943,0,1,1-4.309-6.481A19.937,19.937,0,0,1,456.1,136.989Z"/><path class="d" d="M413.413,126.08v70.3H342.04v-70.3h50.228c.051-14.059,4.764-25.419,10.571-25.419s10.521,11.36,10.573,25.419Z"/><path class="b" d="M402.836,100.762H352.618V179.79h50.218Z"/><path class="d" d="M395.543,144.827a17.815,17.815,0,1,1-5.218-12.6A17.812,17.812,0,0,1,395.543,144.827Z"/><g class="j"><path class="k" d="M413.413,126.08v7.2H342.04V100.66h60.8c5.807,0,10.521,11.36,10.573,25.419Z"/></g><path class="d" d="M402.84,100.661c-5.807,0-10.521,11.36-10.571,25.419H320.894c.052-14.057,4.765-25.416,10.573-25.416Z"/><path class="b" d="M389.959,100.661c-2.568,0-4.827,2.329-6.129,5.85a7.066,7.066,0,0,0-7.1,6.842v.018H340.644v-.018a7,7,0,0,0-6.148-6.761c1.3-3.566,3.572-5.93,6.16-5.93Z"/><path class="d" d="M508.422,156.412a21.818,21.818,0,1,1,.334-16.7,21.807,21.807,0,0,1-.334,16.7Z"/><path class="b" d="M504.853,154.85a17.95,17.95,0,1,1,1.316-9.767,17.906,17.906,0,0,1-1.316,9.767Z"/><path class="a" d="M500.861,134.744l-27.152,23.138a17.96,17.96,0,0,1-2.989-12.945l17.832-15.2a17.99,17.99,0,0,1,12.309,5Z"/><path class="a" d="M504.774,140.3l-26.2,22.329a17.776,17.776,0,0,1-3.73-3.28l27.285-23.254a17.914,17.914,0,0,1,2.645,4.205Z"/><path class="f" d="M480.012,129.357c-1.631,1.971-1.679,2.5-.432,4.7-1.936-1.627-2.462-1.676-4.7-.432,1.631-1.971,1.679-2.5.432-4.7C477.286,130.556,477.812,130.6,480.012,129.357Z"/><path class="d" d="M631.223,350.273s5.584,28.376-5.439,55.214c-11.921,2.012-14.074-1.37-14.074-1.37l.408-41.588Z"/><path class="d" d="M587.4,430.034l21.61-23.119s5.357-9.188,16.776-1.429c-1.136,6.922-11.705,18.637-28,30.9C592.047,435.838,587.4,430.034,587.4,430.034Z"/><path class="g" d="M610.381,338.264v.007l-2.7,5.866,13.216,7.752,6.784-5.159-.182-8.947-14.419-5.266Z"/><path class="h" d="M663.633,514.413c-6.782,8.363-21.587.712-21.713,12.515,23.571,1.126,33.355,1.809,33.355,1.809a86.479,86.479,0,0,0-.409-11.693Z"/><path class="h" d="M753.21,502.981c-.219,10.765-16.412,15.455-9.267,24.85,19.3-13.579,27.863-20.342,27.863-20.342-1.57-2.208-6.008-8.385-7.89-10.142Z"/><path class="h" d="M677.611,377.972l32.023,14.722s-22.879,49.294-36.7,64.913c-2.406,2.719-17.188-.531-18.4-3.57C650.115,442.954,677.611,377.972,677.611,377.972Z"/><path class="h" d="M674.937,451.371c7,21.162,3.011,66.885,3.011,66.885s-11.16-1.143-18.736-3.482c-2.193-36.861-5.757-53.577-5.022-67.122C658.077,439.2,669.939,439.709,674.937,451.371Z"/><path class="h" d="M684.878,385.008l36.818-11s4.78,60.512,1.3,81.077c-.6,3.579-13.52,8.277-16.156,6.336C697.235,454.347,684.878,385.008,684.878,385.008Z"/><path class="h" d="M720.984,447.163c18.939,9.769,44.157,50.7,44.157,50.7a136.8,136.8,0,0,1-14.409,7.264c-27.687-24.672-35.116-34.975-43.889-43.7C700.031,452.46,709.664,441.432,720.984,447.163Z"/><path class="e" d="M634.933,326.757s-7.111,6.424-9.074,10.5c-1.139,13.914-6.943,13.213-6.943,13.213-3.077,3.311-6.8,12.061-6.8,12.061,14.52,10.046,53.449,47.589,53.449,47.589s28.743-6.6,38.749-14.365c13.729-10.648,17.379-21.748,17.379-21.748-12.062-16.291-25.555-26.833-48.044-41.489C665.06,326.917,642.779,321.062,634.933,326.757Z"/><path class="g" d="M608.4,317.125c9.122,8.788,10.921,21.72,4.019,28.885s-19.892,5.847-29.014-2.941-10.921-21.72-4.019-28.884S599.273,308.336,608.4,317.125Z"/><path d="M594.342,336.665c.827,2.861,1.787,6.408,1.787,6.408a4.539,4.539,0,0,0,4.974-1.5c-1.451.7-3.178,1.125-4.25-.65S594.342,336.665,594.342,336.665Z"/><path class="h" d="M602.679,307.863c-9-7.955-18.685-1.426-18.685-1.426s.763-2.5-2.5-4.161a9.607,9.607,0,0,1-2.4,5.553c-9.2,10.211-12.5,18.477-7.373,20.56,1.823.741-2.65,8.466,9.885,12.789-.7-1.567-4.769-5.506-4.187-8.38s3.171.987,6.2-4.282c3.062-5.315,3.378-10.01,7.95-12.159,3.863-1.565,18.224,3.5,18.906,4.25C608.916,318.879,606.634,311.359,602.679,307.863Z"/><path class="h" d="M588.862,347.211s6.185,3.108,8.536,2.989c-2.174-2,3.135-6.094,4.993-8.2,3.365-3.819,2.794-10.632,9.169-8.059,4.13-4.977-5.923-15.3-5.923-15.3,13.793,5.225,17.92,17.094,9.8,30.556C610.087,358.065,596.1,354.86,588.862,347.211Z"/><path d="M598.082,330.335a1.74,1.74,0,1,0-1.861.536,1.748,1.748,0,0,0,1.33-.112,1.733,1.733,0,0,0,.531-.424Z"/><path d="M589.121,341.61a1.741,1.741,0,1,0-1.862.536,1.76,1.76,0,0,0,.676.076,1.742,1.742,0,0,0,1.186-.612Z"/><path class="h" d="M584.474,341.784a.865.865,0,0,0,.157-.842,2.586,2.586,0,0,1,.013-2.085,3.134,3.134,0,0,1,1.747-1.319.865.865,0,0,0-.445-1.671,4.868,4.868,0,0,0-2.824,2.167,4.224,4.224,0,0,0-.126,3.474.865.865,0,0,0,1.477.276Z"/><path class="h" d="M598.175,325.519a.866.866,0,0,0,.128-.911.863.863,0,0,0-.766-.511,5.414,5.414,0,0,0-4.167,1.374,4.216,4.216,0,0,0-1.173,2.906.865.865,0,0,0,1.728-.059,2.5,2.5,0,0,1,.69-1.647,3.825,3.825,0,0,1,2.875-.845.864.864,0,0,0,.378-.075.845.845,0,0,0,.307-.232Z"/><path class="g" d="M605.784,318.539c.373,2.955,2.636,5.1,5.055,4.8s4.076-2.949,3.7-5.9-2.636-5.1-5.054-4.8S605.41,315.586,605.784,318.539Z"/><path d="M611.83,320.572a.646.646,0,0,1-.282.1,2.947,2.947,0,0,1-3.221-1.647,3.142,3.142,0,0,1,.74-3.559.651.651,0,1,1,.855.983,1.861,1.861,0,0,0-.4,2.054,1.666,1.666,0,0,0,1.885.874.652.652,0,0,1,.424,1.195Z"/><path class="f" d="M607.313,338.613c-.319-.324-.722-.5-.943-.1a36.5,36.5,0,0,1-5.7,7.866c-.308.334-.024.675.388.866a5.369,5.369,0,0,0,6.235-1.926C608.924,343.071,608.5,339.819,607.313,338.613Z"/><path class="b" d="M535.692,516.766v8.193a5.8,5.8,0,0,1-5.8,5.8h-100a5.8,5.8,0,0,1-5.8-5.8v-8.193a5.8,5.8,0,0,1,5.8-5.8h100a5.8,5.8,0,0,1,5.8,5.8Z"/><path class="d" d="M432.544,510.969h-2.9v19.787h2.9Z"/><path class="d" d="M444.725,510.969h-2.9v19.787h2.9Z"/><path class="d" d="M456.9,510.969H454v19.787h2.9Z"/><path class="d" d="M469.087,510.969h-2.9v19.787h2.9Z"/><path class="d" d="M481.268,510.969h-2.9v19.787h2.9Z"/><path class="d" d="M493.448,510.969h-2.9v19.787h2.9Z"/><path class="d" d="M505.63,510.969h-2.9v19.787h2.9Z"/><path class="d" d="M517.81,510.969h-2.9v19.787h2.9Z"/><path class="d" d="M529.991,510.969h-2.9v19.787h2.9Z"/><path class="d" d="M534.324,513.025H425.466a5.8,5.8,0,0,1,4.428-2.056h100a5.787,5.787,0,0,1,4.43,2.056Z"/><path class="d" d="M534.324,528.7H425.466a5.79,5.79,0,0,0,4.428,2.055h100a5.782,5.782,0,0,0,4.43-2.055Z"/><path class="b" d="M542.688,496.979v8.193a5.8,5.8,0,0,1-5.8,5.8h-100a5.8,5.8,0,0,1-5.8-5.8v-8.193a5.8,5.8,0,0,1,5.8-5.8h100a5.8,5.8,0,0,1,5.8,5.8Z"/><path class="d" d="M439.54,491.182h-2.9v19.786h2.9Z"/><path class="d" d="M451.72,491.182h-2.9v19.786h2.9Z"/><path class="d" d="M463.9,491.182H461v19.786h2.9Z"/><path class="d" d="M476.082,491.182h-2.9v19.786h2.9Z"/><path class="d" d="M488.262,491.182h-2.9v19.786h2.9Z"/><path class="d" d="M500.444,491.182h-2.9v19.786h2.9Z"/><path class="d" d="M512.624,491.182h-2.9v19.786h2.9Z"/><path class="d" d="M524.806,491.182H521.9v19.786h2.905Z"/><path class="d" d="M536.987,491.182h-2.905v19.786h2.905Z"/><path class="d" d="M541.318,493.237H432.457a5.79,5.79,0,0,1,4.428-2.055h100a5.79,5.79,0,0,1,4.433,2.055Z"/><path class="d" d="M541.318,508.913H432.457a5.787,5.787,0,0,0,4.428,2.056h100a5.782,5.782,0,0,0,4.433-2.056Z"/><path class="d" d="M647.94,489.149a58.148,58.148,0,1,1,2.627-22.534,58.137,58.137,0,0,1-2.627,22.534Z"/><path class="e" d="M638.06,485.959A47.777,47.777,0,0,1,559.691,505.9a48.781,48.781,0,0,1-3.4-3.6A47.771,47.771,0,0,1,622.1,433.7a46.792,46.792,0,0,1,3.727,3.25,47.838,47.838,0,0,1,12.231,49.008Z"/><path class="a" d="M622.1,433.7l-65.813,68.6a47.866,47.866,0,0,1-11.381-33.526l43.223-45.053A47.926,47.926,0,0,1,622.1,433.7Z"/><path class="a" d="M633.965,447.4l-63.509,66.2a47.36,47.36,0,0,1-10.767-7.7l66.138-68.944a47.717,47.717,0,0,1,8.138,10.444Z"/><path class="f" d="M595.816,425.887c-5.642-.592-6.673-.036-9.206,4.968.629-5.573.073-6.6-4.968-9.206,5.643.592,6.673.036,9.206-4.969C590.255,422.324,590.811,423.354,595.816,425.887Z"/><path class="f" d="M575.848,515.592c-4.761-.5-5.631-.031-7.769,4.192.531-4.7.062-5.573-4.192-7.769,4.761.5,5.631.031,7.768-4.192C571.156,512.584,571.625,513.454,575.848,515.592Z"/><path class="g" d="M613.4,431.957c3.46-1.982,8.372-5.455,7.217-7.173-1.853-2.758-4.182-.809-5.82-2.69-1.453-1.668,3.355-5.109,12.411-1.759l1.009-1.2,7.267,4.982-1.186,1.025c-.51,6.593-9.478,15.347-17.885,16.443C607.9,442.693,608.787,434.6,613.4,431.957Z"/><path class="d" d="M642.066,324.551c15.379,2.194,20.072,20.873,25.213,56.437-11.447,9.651-18.334,3.479-18.334,3.479s-12.664-22.959-16.35-31.059C623.747,333.967,634.651,323.492,642.066,324.551Z"/><path class="d" d="M626.561,418.69l20.026-33.177s4.253-9.229,20.692-4.526c1.347,8.583-4.31,24.228-31.7,45.062C631.326,425.1,626.561,418.69,626.561,418.69Z"/><path class="g" d="M325.62,250.051h.01l8.377.031,1.9,19.786-9.779,5.163-10.428-5.1,1.686-19.844Z"/><path class="g" d="M302.606,241.318c5.155,12.884,17.539,20.046,27.657,16s14.142-17.776,8.986-30.66-17.538-20.045-27.657-16S297.45,228.435,302.606,241.318Z"/><path d="M334.848,230.883a1.9,1.9,0,1,0-.307-1.417,1.9,1.9,0,0,0,.307,1.417Z"/><path d="M320.652,236.677a2.052,2.052,0,1,0-.335-1.534,2.06,2.06,0,0,0,.335,1.534Z"/><path d="M331.969,233.907c2.563,2.02,5.767,4.457,5.767,4.457a4.973,4.973,0,0,1-3.577,4.429c1.307-1.185,2.452-2.761,1.093-4.582S331.969,233.907,331.969,233.907Z"/><path class="h" d="M316.918,235.443a.947.947,0,0,1-.922-1.165c.331-1.387,1.719-4.014,4.6-4.028a.946.946,0,1,1,.01,1.892c-2.136.01-2.768,2.55-2.774,2.575a.946.946,0,0,1-.914.726Z"/><path class="h" d="M332.865,226.874a.783.783,0,0,1-.684-.4.783.783,0,0,1-.1-.4.794.794,0,0,1,.108-.4,3.886,3.886,0,0,1,2.428-1.735,4.04,4.04,0,0,1,3.285,1.041.792.792,0,0,1,.276.84.808.808,0,0,1-.143.276.788.788,0,0,1-.238.2.8.8,0,0,1-.3.092.769.769,0,0,1-.309-.03.783.783,0,0,1-.274-.147,2.565,2.565,0,0,0-2.013-.721,2.274,2.274,0,0,0-1.355.982.785.785,0,0,1-.68.39Z"/><path class="h" d="M295.565,231.7c-4.361-12.416,6.262-19.553,6.262-19.553s-2.85-.256-3.19-4.257a10.525,10.525,0,0,0,6.626-.143c14.159-5.126,23.909-5.059,23.909,1,0,2.156,9.35.679,8.566,15.185.055-1.024-3.286-6.988-6.444-7.583s-.307,3.625-6.9,4.531c-6.658.915-11.554-.7-15.62,3.052-3.183,3.275-3.971,19.939-3.488,20.942C304.171,242.571,297.481,237.152,295.565,231.7Z"/><path class="h" d="M341.2,233.907s.6,7.56-.488,9.9c-1.135-3.032-3.57.182-5.858.484-5.528.731-15.5-1.112-16.49,7.18-6.756,2.138-13.083-12.323-13.083-12.323-.388,16.155,11.433,25.329,28.447,22.641C344.935,260.016,345.975,244.41,341.2,233.907Z"/><path d="M329.547,249.4a14.349,14.349,0,0,1-3.413-1.338.63.63,0,0,1,.114-1.159.627.627,0,0,1,.48.047c2.617,1.4,4.964,1.8,6.974,1.183a6.577,6.577,0,0,0,3.63-2.873.631.631,0,0,1,1.117.586,7.749,7.749,0,0,1-4.357,3.486,8.512,8.512,0,0,1-4.545.068Z"/><path class="g" d="M305.121,239.252c2.845,1.6,4.091,4.781,2.783,7.109s-4.674,2.921-7.52,1.322-4.091-4.781-2.784-7.109S302.276,237.654,305.121,239.252Z"/><path d="M304.688,246.227a.694.694,0,0,0,.218-.245,3.225,3.225,0,0,0-.343-3.947,3.439,3.439,0,0,0-3.917-.717.707.707,0,0,0-.229.169.692.692,0,0,0-.145.245.714.714,0,0,0-.039.282.733.733,0,0,0,.076.275.72.72,0,0,0,.427.36.717.717,0,0,0,.284.027.687.687,0,0,0,.271-.085,2.035,2.035,0,0,1,2.25.44,1.825,1.825,0,0,1,.11,2.274.714.714,0,0,0,1.038.923Z"/><path d="M335.314,514.285c1.782-4.841,5.593-5.38,5.593-5.38,7.407,10.22,25.6,3.949,24.994,17.771-27.661-.177-39.157,0-39.157,0a101.656,101.656,0,0,1,1.221-13.66l1.442.265Z"/><path d="M293.927,514.553c1.783-4.841,5.594-5.38,5.594-5.38,7.407,10.22,25.6,3.948,24.995,17.771-27.662-.177-39.157,0-39.157,0a101.656,101.656,0,0,1,1.221-13.66l1.441.265Z"/><path class="h" d="M353.712,352.883s4.491,65.5,2.667,80.064-8.285,33.232-7.553,81.4c-9.018,2.258-22.082,0-22.082,0s-1.937-54.465,7.6-78.791c-3.876-23.63-16.315-77.752-16.315-77.752Z"/><path class="h" d="M336.644,354.674s-9.069,73.536-13.508,87.484S310.036,467.9,302,515.35c-9.267.464-17.9,0-17.9,0s1.251-60.189,15.684-73.877c.488-23.962-2.334-86.327-2.334-86.327Z"/><path class="e" d="M294.839,271.215s15.75-5.514,21-2.986c16.319,7.859,20.063,0,20.063,0,5.215.45,20.958,2.986,20.958,2.986,0,17.581,1.174,35.222.854,48.526-.225,11.586,1.983,43.114,1.983,43.114s-17.365,4.552-33.792,4.671c-16.427-.107-33.146-4.486-33.146-4.486s.877-31.933,1.607-43.8C294.13,305.934,294.839,288.748,294.839,271.215Z"/><path class="e" d="M384.859,297.344c-6.5-15.511-25.792-25.377-28-26.129l-4.475,19.913a116.627,116.627,0,0,1,15.995,11.41c-1.14,5.545-.95,10.982-4.16,17.994,0,0,2.787-3.846,6.226-1.569,3.344,2.212,9.492-2.3,9.492-2.3S389.825,309.192,384.859,297.344Z"/><path class="i" d="M381.237,336.543a1.778,1.778,0,0,0,.338.069h.369a1.762,1.762,0,0,0,1.5-1.228l17.332-55.878a1.763,1.763,0,0,0,.069-.338,1.628,1.628,0,0,0,0-.221v-.133a.639.639,0,0,0-.022-.114,1.758,1.758,0,0,0-1.206-1.4,1.936,1.936,0,0,0-.33-.07,1.817,1.817,0,0,0-.376,0H355.282L337.8,336.608h43.47Z"/><path class="l" d="M355.676,277.3a1.762,1.762,0,0,0-2.2,1.159L336.255,334.2l-.04.131a1.76,1.76,0,0,0,1.153,2.2h0a1.76,1.76,0,0,0,2.2-1.159l17.268-55.866a1.762,1.762,0,0,0-1.159-2.2Z"/><path class="g" d="M388.639,312.753a1.851,1.851,0,0,1,.522-.227c-.019-.028-.039-.053-.058-.081-1.085-1.637-1.012-3.6.162-4.373a1.891,1.891,0,0,1,.627-.262,2.631,2.631,0,0,1,.807-2.926,1.979,1.979,0,0,1,1.126-.315,2.632,2.632,0,0,1,.861-3.064,3.082,3.082,0,0,1,3.355,5.062,2.2,2.2,0,0,1-.972.35c.782,1.524.624,3.192-.438,3.9a1.879,1.879,0,0,1-.626.263,2.629,2.629,0,0,1-.807,2.925,1.959,1.959,0,0,1-1.04.315,2.247,2.247,0,0,1-.684,2.711,2.6,2.6,0,0,1-2.833-4.274Z"/><path class="g" d="M335,309.222l3.977-2.3a7.517,7.517,0,0,1,7.488-5.776l-1.785,5.776s3.144,2.441,10.6-1.736c7.288-1.638,4.175,3.676,6.59,4.058,3.565.563-2.6,7.567-9.875,8.638-9.417,1.388-10.534-.54-10.534-.54l-5.329,1.862Z"/><path class="c" d="M298.2,315.249c13.293-.929,35.97-7.495,35.97-7.495,3.629,5.567,2.625,12.96,2.625,12.96-20.644,18.1-51.713,23.95-61.246,19.593-8.7-3.977-2.559-56.956,19.292-69.092C302.331,283.89,298.2,315.249,298.2,315.249Z"/><path class="a" d="M158.749,270.412,148.6,240.53s-18.2-1.448-29.89,17.974c-7.245,12.038-25.686,15.844-25.686,15.844l10.2,30.04s23.625-2.293,31.678-16.2a38.923,38.923,0,0,1,23.845-17.776Z"/><path class="b" d="M115.656,280.442c4.2,4.909,12.239,4.922,17.966.028s6.97-12.841,2.776-17.75-12.239-4.922-17.966-.028S111.462,275.532,115.656,280.442Z"/><path class="a" d="M789.248,301.271,770.991,275.53s-17.854,3.809-23.514,25.761c-3.508,13.607-20.093,22.52-20.093,22.52l18.354,25.877s21.987-8.944,25.735-24.567a38.922,38.922,0,0,1,17.775-23.85Z"/><path class="b" d="M750.814,323.189c5.421,3.508,13.134,1.223,17.226-5.1s3.014-14.3-2.409-17.8-13.134-1.222-17.226,5.1S745.391,319.682,750.814,323.189Z"/></g></svg>