<svg xmlns="http://www.w3.org/2000/svg" width="75.52" height="49.6" viewBox="0 0 75.52 49.6"><g transform="translate(-253 -31)"><path d="M17.774,62.125l4.368-4.368A6.4,6.4,0,0,0,26.655,59.8a6.3,6.3,0,0,0,6.116-6.455V50.817a9.155,9.155,0,0,1-6.212,2.329,12.351,12.351,0,0,1,0-24.7,9.155,9.155,0,0,1,6.212,2.329V28.783h6.212V53.34c0,7.717-5.825,12.424-12.473,12.424A12.314,12.314,0,0,1,17.774,62.125ZM32.819,40.77a6.279,6.279,0,0,0-6.26-6.115A6.069,6.069,0,0,0,20.54,40.77a6.133,6.133,0,0,0,6.019,6.115A6.279,6.279,0,0,0,32.819,40.77Z" transform="translate(238.769 14.836)"/><path d="M70.005,11.38A4.077,4.077,0,1,1,65.929,7.3,4.1,4.1,0,0,1,70.005,11.38Zm-.922,8.542V43.946H62.774V19.922Z" transform="translate(218.808 23.697)"/><path d="M91.791,34.849c-2.621,0-5,1.407-5,4.853v13.1H80.483V28.831h6.309v2.621a5.979,5.979,0,0,1,5.056-3c.13-.007.256-.01.38-.01,0,0,.109,4.842,0,6.443S91.791,34.849,91.791,34.849Z" transform="translate(210.999 14.836)"/><path d="M101.718,40.77a12.352,12.352,0,1,1,12.328,12.376A12.314,12.314,0,0,1,101.718,40.77Zm18.394,0a6.042,6.042,0,1,0-6.066,6.066A6.059,6.059,0,0,0,120.112,40.77Z" transform="translate(202.098 14.836)"/></g></svg>