<svg xmlns="http://www.w3.org/2000/svg" width="91.899" height="91.899" viewBox="0 0 91.899 91.899"><defs><style>.a{fill:#f6f7f7;}.b{fill:#50c6f1;}</style></defs><path class="a" d="M45.95,0A45.95,45.95,0,1,1,0,45.95,45.95,45.95,0,0,1,45.95,0Z"/><g transform="translate(25 3.789)"><g transform="translate(0 21.461)"><path class="b" d="M47.566,49.3a2.972,2.972,0,0,0-4.1-.794l-6.136,4.106-.018-12.781,2.132,2a2.427,2.427,0,0,0,1.665.658h0a2.445,2.445,0,0,0,1.775-.77,2.436,2.436,0,0,0-.112-3.443L38.73,34.488a.686.686,0,0,0-.938,1l4.041,3.786a1.063,1.063,0,0,1-.726,1.839h0a1.059,1.059,0,0,1-.727-.287h0L24.332,25.8a.686.686,0,0,0-.94,0l-16,15.077A1.063,1.063,0,0,1,5.93,39.325l17.2-16.2a1.065,1.065,0,0,1,1.456,0L34.65,32.546a.686.686,0,0,0,.938-1L25.525,22.118a2.44,2.44,0,0,0-3.336,0l-5.506,5.187,0-.925a1.092,1.092,0,0,0-1.092-1.09h0l-3.939.006a1.092,1.092,0,0,0-1.09,1.093l.011,6.675L4.989,38.326a2.436,2.436,0,0,0,1.6,4.208h.075a2.418,2.418,0,0,0,1.668-.663l2.127-2,.008,6.037a14.462,14.462,0,0,0-2.084-.153H7.207v-.411A2.508,2.508,0,0,0,4.7,42.836h-2.2A2.508,2.508,0,0,0,0,45.341V56.095a.686.686,0,1,0,1.372,0V45.341a1.134,1.134,0,0,1,1.133-1.133H4.7a1.134,1.134,0,0,1,1.133,1.133V61.592A1.134,1.134,0,0,1,4.7,62.725h-2.2a1.134,1.134,0,0,1-1.133-1.133v-1.2a.686.686,0,0,0-1.372,0v1.2A2.508,2.508,0,0,0,2.505,64.1H4.7a2.508,2.508,0,0,0,2.505-2.505V61.5L17.256,65.3l.057.019a4.793,4.793,0,0,0,1.3.185,4.442,4.442,0,0,0,.694-.054l14.769-2.129.01,0a7.23,7.23,0,0,0,3.426-1.535l.025-.022,9.541-8.582A2.972,2.972,0,0,0,47.566,49.3ZM15.309,26.667l0,1.933L11.94,31.777l-.008-5.106Zm8.555.57,12.07,11.307.021,14.986-1.943,1.3-2.057-.115-.054-.547a4.346,4.346,0,0,0-3.491-3.843L28.4,41.411a1.243,1.243,0,0,0-1.242-1.24h0l-6.541.009a1.242,1.242,0,0,0-1.24,1.244l.011,7.773a13.042,13.042,0,0,1-3.689-1.462q-.216-.127-.437-.245c-.057-.031-.115-.06-.173-.09-.089-.047-.179-.094-.269-.138-.072-.036-.145-.069-.217-.1s-.154-.073-.231-.109-.158-.07-.238-.1-.145-.063-.218-.093-.164-.066-.246-.1l-.219-.084L13.2,46.58l-.231-.079-.236-.077-.254-.077-.219-.063c-.1-.027-.191-.051-.288-.076l-.135-.036-.011-7.595Zm3.172,22.917-5.74-.661-.541-.062-.011-7.879,6.28-.009Zm19.133,2.008-9.532,8.573a5.856,5.856,0,0,1-2.757,1.232L19.117,64.1h-.009l-.01,0a3.272,3.272,0,0,1-1.384-.088L7.207,60.031V47.125H8.381a13.1,13.1,0,0,1,2.959.34l.108.026c.119.029.237.058.355.09l.031.009q.177.048.353.1l.063.019q.187.058.373.121l.038.013q.386.133.764.291l.041.017q.188.079.374.164l.01,0q.18.083.357.171l.042.021q.173.087.344.179l.064.035c.115.063.229.126.342.193a14.416,14.416,0,0,0,5.284,1.839l.018,0,7.689.885.127.021a2.976,2.976,0,0,1,2.324,2.138,3.015,3.015,0,0,1,.093.5l.031.307-14.41-1.263a.686.686,0,0,0-.12,1.367L31.27,56.051h.022l2.873.161H34.2c.014,0,.027,0,.041,0l.046,0c.02,0,.04-.007.061-.011l.043-.01a.668.668,0,0,0,.064-.023l.035-.013a.678.678,0,0,0,.093-.052l2.439-1.632h0l7.2-4.82a1.593,1.593,0,0,1,1.943,2.516Z" transform="translate(0 -21.461)"/></g></g></svg>