<svg xmlns="http://www.w3.org/2000/svg" width="91.899" height="91.899" viewBox="0 0 91.899 91.899"><defs><style>.a{fill:#f6f7f7;}.b{fill:#50c6f1;}</style></defs><path class="a" d="M45.95,0A45.95,45.95,0,1,1,0,45.95,45.95,45.95,0,0,1,45.95,0Z"/><g transform="translate(16.999 23.585)"><g transform="translate(9.999 0)"><path class="b" d="M50.647,14.154,30.981.154a.833.833,0,0,0-.967,0l-19.666,14a.833.833,0,0,0,.483,1.512h2.833V37H12.249a.833.833,0,0,0-.833.833v4a.833.833,0,0,0,.833.833h36.5a.833.833,0,0,0,.833-.833v-4A.833.833,0,0,0,48.748,37H47.331V15.666h2.833a.833.833,0,0,0,.483-1.512ZM47.914,41H13.082V38.665H47.914ZM36,37H25V20.333H36Zm-1.75-23a.833.833,0,0,0,0,1.667H45.664V37h-8V19.5a.833.833,0,0,0-.833-.833H24.165a.833.833,0,0,0-.833.833V37h-8V15.666H26.748a.833.833,0,1,0,0-1.667H13.44L30.5,1.856,47.557,14Z" transform="translate(-9.999 0)"/><path class="b" d="M218.5,335.667a.834.834,0,1,0-.589-.244A.84.84,0,0,0,218.5,335.667Z" transform="translate(-200.365 -306.168)"/><path class="b" d="M246.244,168.244a.833.833,0,1,0,.589-.244A.84.84,0,0,0,246.244,168.244Z" transform="translate(-226.334 -154)"/></g></g></svg>