<svg xmlns="http://www.w3.org/2000/svg" width="91.899" height="91.899" viewBox="0 0 91.899 91.899"><defs><style>.a{fill:#f6f7f7;}.b{fill:#50c6f1;}</style></defs><g transform="translate(-1265 -2544.143)"><g transform="translate(1265.156 2543.643)"><path class="a" d="M45.95,0A45.95,45.95,0,1,1,0,45.95,45.95,45.95,0,0,1,45.95,0Z" transform="translate(-0.156 0.5)"/></g><g transform="translate(1249.538 2569.143)"><path class="b" d="M141.087,66.371a.644.644,0,0,0,.76-.5,11.808,11.808,0,1,0-11.57,9.459,11.772,11.772,0,0,0,10.5-6.418.645.645,0,1,0-1.145-.593,10.563,10.563,0,1,1,1.167-4.835,10.662,10.662,0,0,1-.214,2.128.646.646,0,0,0,.5.763Z" transform="translate(-67.649 -47.2)"/><path class="b" d="M186.548,106.042a.645.645,0,0,0-.521-.44l-4.2-.6-1.869-3.819a.648.648,0,0,0-1.157,0L176.933,105l-4.2.6a.651.651,0,0,0-.357,1.1l3.043,2.963-.725,4.191a.649.649,0,0,0,.936.682l3.75-1.987,3.75,1.987a.649.649,0,0,0,.936-.682l-.725-4.191,3.043-2.963A.647.647,0,0,0,186.548,106.042ZM182.2,108.98a.647.647,0,0,0-.186.574l.559,3.231-2.891-1.532a.643.643,0,0,0-.6,0l-2.891,1.532.559-3.231a.647.647,0,0,0-.186-.574l-2.346-2.284,3.237-.465a.644.644,0,0,0,.487-.355l1.441-2.944,1.441,2.944a.645.645,0,0,0,.487.355l3.237.465Z" transform="translate(-116.752 -92.164)"/><path class="b" d="M80.707,38.407l-6.3-10.939A16.256,16.256,0,0,0,54.761,2.037a.646.646,0,0,0,.625,1.13,15.006,15.006,0,1,1-2.373,1.64.645.645,0,0,0-.83-.989,16.3,16.3,0,0,0-1.322,23.665l-1.783,3.1a.645.645,0,0,0,1.116.646l1.621-2.816a16.2,16.2,0,0,0,6.9,3.671L53.157,41.74l-1.422-4.489a.644.644,0,0,0-.752-.435L46.4,37.825l2.294-3.986a.645.645,0,1,0-1.116-.646l-3.024,5.254a.65.65,0,0,0,.7.954l5.438-1.2,1.686,5.322a.648.648,0,0,0,1.172.127l6.5-11.3a16.215,16.215,0,0,0,5.184,0l3.906,6.786a.645.645,0,1,0,1.116-.646l-3.692-6.414a16.2,16.2,0,0,0,6.9-3.68l5.4,9.387-4.587-1.009a.644.644,0,0,0-.752.435L72.1,41.7l-.344-.6a.645.645,0,1,0-1.116.646l1.074,1.866a.648.648,0,0,0,1.172-.127l1.686-5.322,5.438,1.2a.65.65,0,0,0,.7-.954Z" transform="translate(0 0)"/></g></g></svg>