<svg xmlns="http://www.w3.org/2000/svg" width="91.899" height="91.899" viewBox="0 0 91.899 91.899"><defs><style>.a{fill:#f6f7f7;}.b{fill:#50c6f1;}</style></defs><g transform="translate(-0.844 -0.5)"><path class="a" d="M45.95,0A45.95,45.95,0,1,1,0,45.95,45.95,45.95,0,0,1,45.95,0Z" transform="translate(0.844 0.5)"/><g transform="translate(-34.957 24.5)"><g transform="translate(65.8)"><g transform="translate(0)"><path class="b" d="M92.953,18.464V11.588A11.529,11.529,0,0,0,89.511,3.3,11.162,11.162,0,0,0,81.586,0h-.147a11.561,11.561,0,0,0-11.5,11.588v6.876A4.7,4.7,0,0,0,65.8,23.186V38.631a4.757,4.757,0,0,0,4.722,4.786H92.382A4.757,4.757,0,0,0,97.1,38.631V23.186A4.717,4.717,0,0,0,92.953,18.464ZM71.774,11.588h.009a9.741,9.741,0,0,1,9.665-9.775h.009a9.534,9.534,0,0,1,6.756,2.78,9.747,9.747,0,0,1,2.89,7v6.885H89.078V11.588A7.756,7.756,0,0,0,86.786,6.02a7.463,7.463,0,0,0-5.274-2.191h-.055a7.708,7.708,0,0,0-7.658,7.75v6.894H71.774Zm15.473,0v6.885h-11.6V11.588a5.861,5.861,0,0,1,5.817-5.909h.055a5.645,5.645,0,0,1,3.986,1.657A5.933,5.933,0,0,1,87.246,11.588Zm8.1,27.07h0a2.919,2.919,0,0,1-2.918,2.918H70.559a2.919,2.919,0,0,1-2.918-2.918V23.232a2.919,2.919,0,0,1,2.918-2.918h21.87a2.919,2.919,0,0,1,2.918,2.918V38.659Z" transform="translate(-65.8)"/></g></g><g transform="translate(78.125 27.972)"><g transform="translate(0)"><path class="b" d="M206.208,306.3a3.318,3.318,0,1,0-4.105,4.105v2.577a.92.92,0,1,0,1.841,0v-2.577A3.31,3.31,0,0,0,206.208,306.3Zm-3.185,2.393a1.482,1.482,0,1,1,1.482-1.482A1.481,1.481,0,0,1,203.023,308.7Z" transform="translate(-199.7 -303.9)"/></g></g></g></g></svg>