<svg xmlns="http://www.w3.org/2000/svg" width="398.266" height="275.136" viewBox="0 0 398.266 275.136"><defs><style>.a{fill:#dde8fd;opacity:0.4;}.b,.d,.k,.m{fill:none;stroke-linecap:round;}.b,.m{stroke:#5d6a7c;}.b,.d,.k{stroke-miterlimit:10;}.b,.k,.m{stroke-width:5.944px;}.c{fill:#fb9c98;}.d{stroke:#2b2e4a;stroke-width:1.189px;}.e{fill:#5d6a7c;}.f{fill:#dfffe1;}.g{fill:#d3d5fc;}.h,.i{fill:#1f1f1f;}.i{mix-blend-mode:color-dodge;isolation:isolate;}.j{fill:#efeefe;}.k{stroke:#f26d6d;}.l{fill:#ffb6b6;}.n{fill:#fff;}.o{fill:#50c6f1;}</style></defs><g transform="translate(0 0)"><g transform="translate(0 6.691)"><g transform="translate(0 0)"><path class="a" d="M220.461,400.385c-16.834-9.383-22.536-41.942-9.092-81.82,9.932-29.463-5.416-55.644-4.275-90.193,3.357-101.6,199.123-120.4,306.86-68.249,99.1,47.966,104.841,184.667,65.49,240.261Z" transform="translate(-203.897 -131.939)"/></g></g><g transform="translate(70.929 0)"><line class="b" x1="50.254" transform="translate(0 269.427)"/><path class="c" d="M1366.551,1525.134h0c-19.269-5.344-34.677,6.284-40.022,25.552l-20.306,93.126,74.059.1,5.967-73.568C1391.593,1551.072,1385.82,1530.478,1366.551,1525.134Z" transform="translate(-1243.626 -1374.158)"/><path class="c" d="M1380.415,1541.77h0a29.418,29.418,0,0,1-29.584-29.25l-.4-70.341,101.491-.575.157,27.685A72.074,72.074,0,0,1,1380.415,1541.77Z" transform="translate(-1271.961 -1321.455)"/><rect class="c" width="21.353" height="25.504" rx="10.677" transform="translate(200.352 46.216) rotate(69.093)"/><path class="d" d="M1495.129,1532.647" transform="translate(-1364.701 -1379.807)"/><path class="d" d="M1505.861,1669.557" transform="translate(-1371.579 -1467.556)"/><path class="d" d="M1421.2,1736.355" transform="translate(-1317.319 -1510.368)"/><path class="d" d="M1352.375,1514.926" transform="translate(-1273.206 -1368.449)"/><path class="e" d="M14.28,0h59a14.28,14.28,0,0,1,14.28,14.28V142.356a14.28,14.28,0,0,1-14.28,14.28h-59A14.28,14.28,0,0,1,0,142.356V14.28A14.28,14.28,0,0,1,14.28,0Z" transform="translate(104.416)"/><path class="e" d="M14.28,0h59A14.343,14.343,0,0,1,86.942,10.115a13.972,13.972,0,0,1,.617,4.164V142.356a14.28,14.28,0,0,1-14.28,14.28h-59A14.28,14.28,0,0,1,0,142.356V14.28A14.28,14.28,0,0,1,14.28,0Z" transform="translate(100.435 0.001)"/><path class="f" d="M0,0H80.642V128.583H0Z" transform="translate(103.893 14.028)"/><path class="g" d="M1531.493,1123.872a2.51,2.51,0,1,0-2.51,2.51A2.51,2.51,0,0,0,1531.493,1123.872Z" transform="translate(-1384.791 -1116.205)"/><circle class="h" cx="4.848" cy="4.848" r="4.848" transform="translate(137.337 149.992) rotate(-45)"/><path class="i" d="M1662.09,1176.973h0v-11.607h0a1.87,1.87,0,0,1,1.87,1.87v7.868A1.87,1.87,0,0,1,1662.09,1176.973Z" transform="translate(-1471.71 -1144.408)"/><path class="i" d="M1662.09,1219.038h0v-11.607h0a1.87,1.87,0,0,1,1.87,1.87v7.867A1.87,1.87,0,0,1,1662.09,1219.038Z" transform="translate(-1471.71 -1171.369)"/><g transform="translate(114.906 70.383)"><rect class="j" width="58.616" height="13.012" rx="3.249" transform="translate(58.616 28.854) rotate(180)"/><rect class="j" width="58.616" height="13.012" rx="3.249" transform="translate(58.616 13.012) rotate(180)"/><g transform="translate(4.991 20.521)"><g transform="translate(25.368 0)"><ellipse class="e" cx="1.826" cy="1.826" rx="1.826" ry="1.826"/></g><g transform="translate(19.026 0)"><ellipse class="e" cx="1.826" cy="1.826" rx="1.826" ry="1.826"/></g><g transform="translate(12.684 0)"><ellipse class="e" cx="1.826" cy="1.826" rx="1.826" ry="1.826"/></g><g transform="translate(6.342 0)"><ellipse class="e" cx="1.826" cy="1.826" rx="1.826" ry="1.826"/></g><path class="e" d="M1469.453,1361.987a1.826,1.826,0,1,0-1.826,1.826A1.826,1.826,0,0,0,1469.453,1361.987Z" transform="translate(-1465.801 -1360.161)"/></g><rect class="e" width="42.158" height="3.652" rx="1.75" transform="translate(4.991 4.68)"/></g><rect class="c" width="21.353" height="22.062" rx="10.677" transform="matrix(0.006, 1, -1, 0.006, 197.705, 123.721)"/><rect class="c" width="21.353" height="21.353" rx="10.677" transform="matrix(0.006, 1, -1, 0.006, 197.578, 102.402)"/><path class="c" d="M1377.421,1251.243h-.028l-13.766,15.637-8.8,10.042a28.538,28.538,0,0,0-7.069,18.786l-.018,34.2,22.5.012.019-34.741a4.613,4.613,0,0,1,1.159-3.055l8.007-9.052A22.564,22.564,0,0,0,1377.421,1251.243Z" transform="translate(-1270.239 -1199.449)"/><path class="c" d="M0,0H0A43.045,43.045,0,0,1,43.045,43.045V54.3A34.655,34.655,0,0,1,8.391,88.956H0a0,0,0,0,1,0,0V0A0,0,0,0,1,0,0Z" transform="translate(77.491 112.468)"/><path class="k" d="M1449.019,1544.083v7.823a34.384,34.384,0,0,1-5.244,17.823l-5.153,8" transform="translate(-1328.484 -1387.137)"/><path class="l" d="M1635.986,1401.754a7.3,7.3,0,1,0,0,14.6Z" transform="translate(-1450.301 -1295.915)"/><path class="c" d="M1649.508,1342.771l-.011-2.195c-.026-5.29-3.737-9.555-8.289-9.525l-1.888.013c-4.552.03-8.222,4.343-8.2,9.633l.011,2.195c.026,5.29,3.737,9.555,8.289,9.525l1.888-.013C1645.864,1352.375,1649.534,1348.062,1649.508,1342.771Z" transform="translate(-1451.863 -1250.6)"/><path class="l" d="M1642.451,1340.473c-3.469,0-6.281,3.268-6.281,7.3s2.812,7.3,6.281,7.3Z" transform="translate(-1455.098 -1256.638)"/><path class="l" d="M1635.986,1461.13a7.3,7.3,0,0,0,0,14.6Z" transform="translate(-1450.301 -1333.97)"/><path class="l" d="M1410.9,1251.245l-5.225,12.355h-5.652Z" transform="translate(-1303.745 -1199.45)"/><path class="m" d="M192.269,0H0" transform="translate(50.254 269.427)"/><g transform="translate(123.5 23.301)"><ellipse class="j" cx="20.714" cy="20.715" rx="20.714" ry="20.715" transform="translate(0 0)"/><ellipse class="n" cx="20.714" cy="20.715" rx="20.714" ry="20.715" transform="translate(0 0)"/><path class="e" d="M1502.655,1252.219a20.7,20.7,0,0,0,17.294-9.31,19.643,19.643,0,0,0-34.587,0A20.694,20.694,0,0,0,1502.655,1252.219Z" transform="translate(-1481.941 -1210.79)"/><ellipse class="e" cx="7.981" cy="7.981" rx="7.981" ry="7.981" transform="matrix(0.987, -0.16, 0.16, 0.987, 11.558, 5.184)"/></g><path class="o" d="M1507.413,1401.754h-36.8a6.5,6.5,0,0,0-6.5,6.5h0a6.5,6.5,0,0,0,6.5,6.5h36.8a6.5,6.5,0,0,0,6.5-6.5h0A6.5,6.5,0,0,0,1507.413,1401.754Z" transform="translate(-1344.821 -1295.915)"/><g transform="translate(125.598 108.741)"><path class="j" d="M1484.217,1409.835a2.589,2.589,0,0,1,1.876.8l-.907.848a1.588,1.588,0,0,0-1.351-.366.7.7,0,0,0-.43.265.671.671,0,0,0-.105.41.539.539,0,0,0,.33.477,6.272,6.272,0,0,0,.878.231,2.184,2.184,0,0,1,1.148.555,1.854,1.854,0,0,1,.4,1.588l-.005.034-.009.035a2.065,2.065,0,0,1-2.138,1.5,2.76,2.76,0,0,1-2.23-1.364l1.078-.616a1.626,1.626,0,0,0,1.227.74.718.718,0,0,0,.734-.272.688.688,0,0,0,.051-.707.768.768,0,0,0-.542-.285,5.613,5.613,0,0,1-1.095-.3,1.784,1.784,0,0,1-1-1.1l-.007-.025-.005-.025a2.051,2.051,0,0,1,.256-1.567,1.943,1.943,0,0,1,1.16-.774,2.737,2.737,0,0,1,.68-.079Z" transform="translate(-1481.678 -1409.835)"/><path class="j" d="M1498.671,1409.854v6.384h-1.242v-6.384Z" transform="translate(-1491.773 -1409.847)"/><path class="j" d="M1507.3,1409.85a2.857,2.857,0,0,1,2.109.946l-.85.9a1.653,1.653,0,0,0-1.259-.607,1.965,1.965,0,0,0,0,3.9,1.7,1.7,0,0,0,1.467-.907h-1.474v-1.334h2.816v1.335a3,3,0,0,1-2.81,2.148,3.2,3.2,0,0,1,0-6.385Z" transform="translate(-1496.194 -1409.844)"/><path class="j" d="M1527.15,1413.2v-3.343h1.24v6.384l-3.268-3.341v3.34h-1.24v-6.382Z" transform="translate(-1508.728 -1409.846)"/><path class="j" d="M1557.287,1409.854v3.793c0,1.033.576,1.351,1.163,1.351s1.163-.317,1.163-1.351v-3.793h1.242v3.793a2.411,2.411,0,1,1-4.809,0v-3.793Z" transform="translate(-1529.342 -1409.847)"/><path class="j" d="M1572.879,1409.847H1575a2.264,2.264,0,0,1,1.742.778,2.61,2.61,0,0,1,0,3.253,2.264,2.264,0,0,1-1.742.778h-.881v1.577h-1.242Zm1.242,3.567H1575a.933.933,0,0,0,.792-.336,1.373,1.373,0,0,0,0-1.652.933.933,0,0,0-.792-.337h-.881Z" transform="translate(-1540.131 -1409.843)"/></g></g></g></svg>