<svg xmlns="http://www.w3.org/2000/svg" width="398.266" height="310.473" viewBox="0 0 398.266 310.473"><defs><style>.a{fill:#f1f6fe;}.b{fill:#ffc0bb;}.c{fill:#daeef7;}.d{fill:#333;}.e{fill:#e87b50;}.e,.h,.u,.v{opacity:0.3;mix-blend-mode:multiply;isolation:isolate;}.f,.v{fill:#f99893;}.g,.h{fill:#5d6a7c;}.i{fill:#07085b;}.j,.p{fill:#fff;}.k{fill:#fc8d84;opacity:0.6;}.l{fill:#8fd0d6;}.m{fill:#cbefef;}.n{fill:#62de11;}.o{fill:#88d2d0;}.p{opacity:0.5;}.q{fill:#67bfbd;}.r{fill:#3a2645;}.s{fill:#006d62;}.t,.u{fill:#55769f;}</style></defs><g transform="translate(0 0)"><path class="a" d="M220.461,400.385c-16.834-9.383-22.536-41.942-9.092-81.82,9.932-29.463-5.416-55.644-4.275-90.193,3.357-101.6,199.123-120.4,306.86-68.249,99.1,47.966,104.841,184.667,65.49,240.261Z" transform="translate(-203.897 -89.913)"/><g transform="translate(30.134)"><g transform="translate(45.024 172.788)"><path class="b" d="M553.45,1865.241l-1.777,13.317-1.322,2.381-2.377-1.72.97-13.539Z" transform="translate(-521.182 -1747.632)"/><path class="c" d="M551.548,1969.533l-11.66.039a.129.129,0,0,1-.13-.129l0-.941a.129.129,0,0,1,.129-.13l11.66-.039a.129.129,0,0,1,.129.129l0,.941A.129.129,0,0,1,551.548,1969.533Z" transform="translate(-514.257 -1834.5)"/><path class="d" d="M541.056,1941.875l-.384,3.336c-.047.411.184.784.486.783l10.5-.035a.766.766,0,0,0,.684-.493,1.459,1.459,0,0,0-.3-1.486c-.945-1.326-4.035-1.64-5.55-2.769l-4.892.016C541.33,1941.229,541.1,1941.5,541.056,1941.875Z" transform="translate(-515.024 -1811.647)"/><g transform="translate(30.654 129.855)"><path class="c" d="M572.6,1944.7h0a.225.225,0,0,1-.061-.272,2.028,2.028,0,0,1,2.158-1.348c.076.013.128.114.115.217v0c-.012.1-.08.166-.154.154a1.749,1.749,0,0,0-1.886,1.169C572.735,1944.709,572.662,1944.742,572.6,1944.7Z" transform="translate(-572.517 -1943.054)"/></g><g transform="translate(31.746 130.281)"><path class="c" d="M579.538,1947.408h0a.225.225,0,0,1-.061-.271,2.028,2.028,0,0,1,2.158-1.348c.076.013.127.113.115.217v0c-.012.1-.08.167-.154.154a1.75,1.75,0,0,0-1.886,1.17C579.675,1947.414,579.6,1947.447,579.538,1947.408Z" transform="translate(-579.457 -1945.759)"/></g><g transform="translate(32.762 130.678)"><path class="c" d="M585.993,1949.932h0a.226.226,0,0,1-.061-.272,2.028,2.028,0,0,1,2.158-1.348c.076.013.128.113.115.217v0c-.012.1-.08.167-.154.154a1.75,1.75,0,0,0-1.886,1.169C586.129,1949.938,586.056,1949.97,585.993,1949.932Z" transform="translate(-585.912 -1948.283)"/></g><path class="e" d="M543.961,1955.868c-.836-2.692-2.264-2.984-3.043-2.919l-.247,2.146c-.047.412.184.784.486.783Z" transform="translate(-515.024 -1821.53)"/><path class="b" d="M393.011,1875.934l-5.345,11.448-1.322,2.381-2.748-3.026,3.92-11.023Z" transform="translate(-382.673 -1756.456)"/><path class="c" d="M389.528,1969.533l-11.66.039a.129.129,0,0,1-.13-.129l0-.941a.129.129,0,0,1,.129-.13l11.66-.039a.129.129,0,0,1,.13.129l0,.941A.129.129,0,0,1,389.528,1969.533Z" transform="translate(-377.735 -1834.5)"/><path class="d" d="M379.035,1941.875l-.384,3.336c-.047.411.184.784.486.783l10.5-.035a.765.765,0,0,0,.684-.493,1.458,1.458,0,0,0-.3-1.486c-.945-1.326-4.035-1.64-5.55-2.769l-4.892.016C379.31,1941.229,379.077,1941.5,379.035,1941.875Z" transform="translate(-378.502 -1811.647)"/><g transform="translate(5.156 129.855)"><path class="c" d="M410.578,1944.7h0a.225.225,0,0,1-.061-.272,2.028,2.028,0,0,1,2.158-1.348c.076.013.128.114.115.217v0c-.012.1-.08.166-.154.154a1.749,1.749,0,0,0-1.886,1.169C410.714,1944.709,410.641,1944.742,410.578,1944.7Z" transform="translate(-410.496 -1943.054)"/></g><g transform="translate(6.248 130.281)"><path class="c" d="M417.518,1947.408h0a.225.225,0,0,1-.061-.271,2.029,2.029,0,0,1,2.158-1.348c.076.013.127.113.115.217v0c-.012.1-.08.167-.154.154a1.75,1.75,0,0,0-1.886,1.17C417.654,1947.414,417.581,1947.447,417.518,1947.408Z" transform="translate(-417.436 -1945.759)"/></g><g transform="translate(7.264 130.678)"><path class="c" d="M423.972,1949.932h0a.226.226,0,0,1-.061-.272,2.028,2.028,0,0,1,2.158-1.348c.076.013.128.113.115.217v0c-.012.1-.08.167-.154.154a1.75,1.75,0,0,0-1.886,1.169C424.109,1949.938,424.036,1949.97,423.972,1949.932Z" transform="translate(-423.891 -1948.283)"/></g><path class="e" d="M381.94,1955.868c-.836-2.692-2.264-2.984-3.043-2.919l-.247,2.146c-.047.412.184.784.486.783Z" transform="translate(-378.502 -1821.53)"/><path class="d" d="M416.156,1593.229s11.4,14.5,10.743,18.348-8.353,30.107-8.353,30.107-5.166.659-7.694,0c0,0,4.286-26.811,4.286-28.569s-4.286-6.043-4.286-6.043,2.088,5.164-.659,12.416-16.926,24.833-16.926,24.833-5.5-1.868-5.715-3.626c0,0,11.87-22.635,11.65-24.5s-6.814-22.415-6.814-22.415l2.308-3.626Z" transform="translate(-386.008 -1515.834)"/><path class="b" d="M436.834,1122.078a.155.155,0,0,1-.236-.135c.029-.953.1-3.95-.142-4.013-.286-.074-.415,2.6-.677,2.682s-.072-2.529-.391-2.558-.413,2.354-.552,2.388-.293-2.26-.469-2.39-.311,2.338-.468,2.428-.631-1.645-.784-1.622-.26.014-.311,4.224l.051,1.658.773,1.332,1.832-.266s3.313-4.289,3.242-4.5S438.448,1121.086,436.834,1122.078Z" transform="translate(-424.137 -1117.928)"/><path class="b" d="M584.876,1293.543a.155.155,0,0,0,.236-.135c-.028-.952-.1-3.95.142-4.013.286-.074.414,2.6.677,2.682s.072-2.529.391-2.559.413,2.354.552,2.388.292-2.26.469-2.39.311,2.338.467,2.428.631-1.645.785-1.621.26.013.311,4.224l-.051,1.659-.773,1.332-1.832-.266s-3.313-4.289-3.242-4.5S583.262,1292.551,584.876,1293.543Z" transform="translate(-550.704 -1262.409)"/><path d="M520.778,1625.061q-.368.5-.722,1c-.238.336-.469.678-.7,1.017l-.688,1.026-.676,1.033-.047.071.029.083c.214.6.419,1.213.641,1.815l.328.9.338.9c.228.6.459,1.2.7,1.794s.483,1.19.744,1.778c-.169-.621-.356-1.235-.547-1.848s-.39-1.223-.593-1.832l-.308-.912-.317-.908c-.209-.607-.434-1.208-.65-1.812l-.017.155.643-1.054.631-1.062c.206-.357.415-.712.616-1.071S520.583,1625.425,520.778,1625.061Z" transform="translate(-495.878 -1545.25)"/><path class="b" d="M468.818,1335.042l-.55,6.52,5.755-.275-.663-5.774Z" transform="translate(-454.02 -1300.874)"/><path class="f" d="M475.6,1338.259l-.316-2.746-4.542-.471-.19,2.258A4.569,4.569,0,0,0,475.6,1338.259Z" transform="translate(-455.945 -1300.874)"/><path class="g" d="M379.121,1175.1c.22-3.3,7.181-19.925,7.181-19.925s3.883.293,5.569,2.857c0,0-4.543,13.478-4.836,15.749s1.685,13.772,3.224,14.578l2.784-.22s1.978,2.491,6.081.073c0,0,5.5.879,7.547,3.077,0,0,6.686,6.794,7.016,6.19s-1.319-15-1.319-15l5.221.494s2.933,21.247,1.1,22.141c-3.27,1.594-11.96-4.346-11.96-4.346-.006,1.3-.091,2.421-.056,3.12.824,16.243,3.077,22.635,3.077,22.635s-11.943,3.443-24.472.733c0,0-3.81-21.536-2.711-32.378C382.565,1194.878,378.9,1178.4,379.121,1175.1Z" transform="translate(-378.895 -1149.313)"/><path class="h" d="M425.844,1433.326a41.07,41.07,0,0,0,1.328,5.775s-11.943,3.443-24.472.733c0,0-3.81-21.536-2.711-32.378C399.989,1407.456,404.893,1429.2,425.844,1433.326Z" transform="translate(-396.319 -1361.891)"/><g transform="translate(8.959 19.133)"><path class="i" d="M513.9,1265.34l.449,3.793-2.592-4.492s1.478-1.317,1.639-1.036A14.038,14.038,0,0,1,513.9,1265.34Z" transform="translate(-499.626 -1259.779)"/><g transform="translate(0.68 3.415)"><path class="f" d="M521.142,1294a1.18,1.18,0,1,0,1.384-1.217A1.319,1.319,0,0,0,521.142,1294Z" transform="translate(-508.189 -1287.801)"/><path class="b" d="M452.637,1271.656a5.989,5.989,0,0,0,.239-1.081,11.372,11.372,0,0,0,.005-2.9c-.022-.188-.033-.376-.04-.565a6.149,6.149,0,1,0-12.156,1.535,1.329,1.329,0,0,0-1.19.161,1.854,1.854,0,0,0,2.139,2.917,1.175,1.175,0,0,0,.232-.228,5.766,5.766,0,0,0,6.718,3.957,5.517,5.517,0,0,0,3.33-2.312,2.756,2.756,0,0,0,.162-.234A5.329,5.329,0,0,0,452.637,1271.656Z" transform="translate(-438.982 -1261.204)"/><path class="f" d="M496.381,1298.056c.107.336.2.666.313.985a2.286,2.286,0,0,0,.431.827l.035.029a.519.519,0,0,0,.044.036.835.835,0,0,1,.126.1.7.7,0,0,1,.176.286.726.726,0,0,1-.1.621,1.186,1.186,0,0,1-.962.487,1.464,1.464,0,0,0,.723-.624.466.466,0,0,0,.026-.374.387.387,0,0,0-.1-.144.535.535,0,0,0-.076-.06l-.058-.044-.066-.052a1.37,1.37,0,0,1-.313-.5,2.865,2.865,0,0,1-.145-.522A3.675,3.675,0,0,1,496.381,1298.056Z" transform="translate(-487.332 -1292.257)"/><path class="d" d="M479.142,1302.209a.537.537,0,1,1-.644-.4A.536.536,0,0,1,479.142,1302.209Z" transform="translate(-471.929 -1295.407)"/><path class="d" d="M508.1,1297.431a.537.537,0,1,1-.644-.4A.536.536,0,0,1,508.1,1297.431Z" transform="translate(-496.333 -1291.38)"/><path class="i" d="M472.027,1294.2a5.531,5.531,0,0,0-.807.033,2.722,2.722,0,0,0-.722.187,2.522,2.522,0,0,0-.638.378c-.109.071-.193.171-.3.255s-.187.2-.3.289a2.251,2.251,0,0,1,.132-.409,1.841,1.841,0,0,1,.233-.37,1.735,1.735,0,0,1,.713-.534,1.812,1.812,0,0,1,.881-.127A1.654,1.654,0,0,1,472.027,1294.2Z" transform="translate(-464.496 -1288.75)"/><path class="i" d="M501.756,1289.374a1.65,1.65,0,0,1,.653-.562,1.812,1.812,0,0,1,.87-.188,1.733,1.733,0,0,1,.855.252,1.844,1.844,0,0,1,.347.265,2.25,2.25,0,0,1,.266.338c-.14-.048-.258-.116-.383-.166s-.242-.106-.369-.135a2.518,2.518,0,0,0-.73-.132,2.723,2.723,0,0,0-.742.076A5.523,5.523,0,0,0,501.756,1289.374Z" transform="translate(-491.877 -1284.308)"/></g><path class="i" d="M448.077,1241.6s1.753-.436-.486-1.388-7.621-1.29-10.29,1.254c0,0-1-1.156-1.822-.581s.94,1.069.94,1.069-1.169.29-1.361.958c-.142.494.572.312.954.183-.627.3-2.7,2.61.008,7.346.423-.227,1.938-4.679,1.938-4.679s6.8,1.6,5.484-.83c0,0,7.163,2.075,5.411-.817C448.853,1244.117,451.255,1243.624,448.077,1241.6Z" transform="translate(-434.66 -1239.506)"/><path class="i" d="M443.32,1271.492a1.157,1.157,0,0,1,1.079-.042c.641.267,1,1.743,1,1.743s2.954.9.761-5.836c-2.332-7.17-1.919,1.171-1.919,1.171Z" transform="translate(-441.957 -1260.522)"/><path class="j" d="M492.428,1323.57a1.454,1.454,0,0,1-2.764.469Z" transform="translate(-481.008 -1310.34)"/></g></g><g transform="translate(230.719 200.029)"><path class="b" d="M1574.987,1377.416l-7.994,9.774-3.852-9.432a38.173,38.173,0,0,0-1.037-4.121c-.16-.063-.266.04-.495,1.547a.124.124,0,0,1-.206.075,14.069,14.069,0,0,0-2.54-2c-.194.137,1.385,1.607,1.3,1.81s-1.592-1.27-1.776-1.089,1.232,1.477,1.181,1.58-1.541-.994-1.713-.953,1.276,1.406,1.249,1.549-1.339-.467-1.4-.361-.127.167,2.434,2.386l1.046.831.01,0c.092,2.113.328,9.943,2.521,14.484,1.17,2.423,9.067-3.712,11.277-5.487Z" transform="translate(-1557.677 -1360.314)"/><path class="d" d="M1670.459,1340.191a12.324,12.324,0,0,1-1.405,5.154c-1.091,1.693-2.587,4.7.22,6.564s6.853-.668,6.911-.855,1.413-2.288,1.3-3.968.642-3.691-.744-5.113S1670.459,1340.191,1670.459,1340.191Z" transform="translate(-1650.355 -1332.453)"/><path class="d" d="M1699.963,1305.142a11.669,11.669,0,0,1-1.148-5.951,6.867,6.867,0,0,0-1.108-4.766c-2.057-2.84-4.622-3.781-7.467-3.267-3.292.6-5.252,4.571-5.054,7.024l6.034.118-1.662.331c-3.977,10.3-1.465,10.685-.794,12.01s4.815,2.685,8.066,2.116C1702.064,1311.84,1701.362,1308.077,1699.963,1305.142Z" transform="translate(-1665.108 -1291.025)"/><path class="b" d="M1713.257,1372.724l.186,4.925s-1.858,1.519-5.089-.524a3.864,3.864,0,0,0,.6-2.583C1708.9,1372.633,1713.257,1372.724,1713.257,1372.724Z" transform="translate(-1684.641 -1359.866)"/><path class="k" d="M1715.411,1372.724l.081,2.054c-.765,1.264-2.234,1.852-4.581,1.489a5.667,5.667,0,0,0,.194-1.725C1711.056,1372.633,1715.411,1372.724,1715.411,1372.724Z" transform="translate(-1686.795 -1359.866)"/><path class="f" d="M1685.077,1334.7a1.028,1.028,0,1,1-1.16-1.109A1.149,1.149,0,0,1,1685.077,1334.7Z" transform="translate(-1663.34 -1326.89)"/><path class="b" d="M1689.814,1316.466a5.206,5.206,0,0,1-.169-.949,9.9,9.9,0,0,1,.1-2.519c.026-.163.042-.326.055-.49a5.354,5.354,0,1,1,10.52,1.773,1.157,1.157,0,0,1,1.03.183,1.614,1.614,0,0,1-1.966,2.461,1.032,1.032,0,0,1-.194-.207,5.021,5.021,0,0,1-5.988,3.2,4.8,4.8,0,0,1-2.814-2.132,2.374,2.374,0,0,1-.133-.21A4.64,4.64,0,0,1,1689.814,1316.466Z" transform="translate(-1668.842 -1304.977)"/><path class="f" d="M1711.863,1339.365c-.083.292-.167.579-.267.858a3.558,3.558,0,0,1-.172.4,1.093,1.093,0,0,1-.238.331l-.036.027c-.013.01-.021.017-.042.031a.706.706,0,0,0-.1.078.512.512,0,0,0-.089.1.444.444,0,0,0-.064.12.593.593,0,0,0,.057.505.914.914,0,0,0,.345.332,1.273,1.273,0,0,0,.437.145,1.753,1.753,0,0,1-.382-.226.9.9,0,0,1-.262-.323.448.448,0,0,1-.019-.365.326.326,0,0,1,.045-.077.331.331,0,0,1,.062-.067.5.5,0,0,1,.077-.055c.027-.018.071-.049.1-.074a1.218,1.218,0,0,0,.279-.4,2.624,2.624,0,0,0,.151-.439A3.781,3.781,0,0,0,1711.863,1339.365Z" transform="translate(-1686.716 -1331.757)"/><path class="d" d="M1725.936,1336.548a4.791,4.791,0,0,1,.7.057,2.369,2.369,0,0,1,.621.189,2.2,2.2,0,0,1,.541.352c.092.065.161.156.251.233s.155.176.251.262a1.962,1.962,0,0,0-.1-.361,1.57,1.57,0,0,0-.189-.33,1.508,1.508,0,0,0-.6-.491,1.576,1.576,0,0,0-.761-.142A1.437,1.437,0,0,0,1725.936,1336.548Z" transform="translate(-1699.456 -1329.187)"/><path class="d" d="M1699.095,1331.335a1.439,1.439,0,0,0-.548-.512,1.572,1.572,0,0,0-.75-.195,1.508,1.508,0,0,0-.753.188,1.6,1.6,0,0,0-.312.218,1.975,1.975,0,0,0-.244.284c.123-.037.228-.091.339-.13s.215-.084.326-.1a2.2,2.2,0,0,1,.64-.088,2.365,2.365,0,0,1,.643.093A4.775,4.775,0,0,1,1699.095,1331.335Z" transform="translate(-1674.643 -1324.396)"/><path class="d" d="M1721.307,1308.73a1.569,1.569,0,0,1,.661.011l.284-.044-.067-.356-.109-.051.233-.967-.135-1.009s-.881-2.883-.92-2.96-1.049-1.245-1.114-1.309-1.921-.352-1.921-.352-2.88-1.684-2.924.219a4.665,4.665,0,0,0,2.064,3.507,3.194,3.194,0,0,1,.083-1.624A15.984,15.984,0,0,0,1721.307,1308.73Z" transform="translate(-1690.49 -1299.436)"/><path class="j" d="M1709.531,1362.928a1.533,1.533,0,0,1-2.939-.316Z" transform="translate(-1683.156 -1351.346)"/><path class="b" d="M1791.405,1417.168c-.079-.081-1.117.723-1.169.6s.953-1.62.792-1.622-1.256,1.27-1.322,1.189.925-1.514.726-1.636-1.232,1.484-1.35,1.322.981-1.78.781-1.862a12.729,12.729,0,0,0-1.843,2.28.113.113,0,0,1-.2-.025c-.507-1.286-.622-1.357-.75-1.269s-.58,3.812-.58,3.812l-8.321,6.8s-5.372-11.882-6.755-12.678c-.347-.2-.923.349-1.723.261l-.219,9.2c2.224,3.75,6.105,9.59,8.67,9.5,3.038-.1,7.734-7.756,9.449-10.735h0l2.141-2.543C1791.551,1417.289,1791.485,1417.248,1791.405,1417.168Z" transform="translate(-1736.142 -1394.677)"/><path class="b" d="M1694.587,1650.373s5.358,19.744,7.507,21.579c1.376,1.174,24.313,18.811,24.417,18.685s2.781-3.2,2.781-3.2-20.476-18.475-21.1-20.1-2.9-18.842-2.9-18.842Z" transform="translate(-1673.041 -1592.234)"/><path class="b" d="M1678.958,1395.739s11.749.783,14.2,1.514c0,0,.052,2.326-.5,2.794a32.312,32.312,0,0,1-7.78,2.655c-1.724.136-2.977,1.389-4.283-.516s-1.645-2.376-1.645-2.871Z" transform="translate(-1659.871 -1379.26)"/><path class="b" d="M1882.837,1896.217l-.233-5.383,4.022-2.291.185,1.688-1.752,4.523s-1.124,1.519-1.213,1.564A6.375,6.375,0,0,1,1882.837,1896.217Z" transform="translate(-1831.468 -1794.508)"/><path class="b" d="M1659.06,1699.153l6.49,39.3s3.71,4.45,3.881,2.235c.04-.515-.007-4.23.048-4.906.463-5.679,1.019-16.877.636-20.814-.414-4.259-1.872-11.46-1.872-11.46Z" transform="translate(-1643.105 -1634.923)"/><path class="i" d="M1884.082,1896.217l.086,1.379a.637.637,0,0,0,1.191.28l4.329-7.661a.562.562,0,0,0-.213-.766l-1.6-.906C1886.613,1894.563,1885.122,1896.046,1884.082,1896.217Z" transform="translate(-1832.714 -1794.508)"/><path class="g" d="M1648.815,1396.977c-.574,2.926-2.05,12.074.2,19.453a20.482,20.482,0,0,0-3.238,10.267c0,5.534,3.238,26.938,3.238,26.938s9.295-.522,14.1-2.3V1437.66l2.193,12.425,2.193-.94s3.029-20.324-4.8-31.514c0,0,2.974-7.724,3.182-8.455,0,0-.571-6.546,1.308-10.514a21.775,21.775,0,0,1-1.984-1.41c.157,0-1.88,3.237-6.632,3.08s-7.572-4.594-7.572-4.594l-1.046.153A1.359,1.359,0,0,0,1648.815,1396.977Z" transform="translate(-1631.912 -1379.26)"/><path class="b" d="M1672.739,1949.3l4.467-2.622,3.756,2.382-1.35.917-4.63.55s-1.8-.27-1.875-.325A6.119,6.119,0,0,1,1672.739,1949.3Z" transform="translate(-1654.631 -1843.493)"/><path class="i" d="M1665.081,1962.055l-1.133.694a.612.612,0,0,0,.3,1.136l8.456.225a.541.541,0,0,0,.555-.526l.047-1.77C1667.625,1963.458,1665.694,1962.861,1665.081,1962.055Z" transform="translate(-1646.973 -1856.248)"/><path class="h" d="M1656.43,1415.943c-8.773-3.028-5.431-20.2-5.431-20.2l-1.034.152a1.376,1.376,0,0,0-1.151,1.1c-.575,2.938-2.045,12.073.2,19.442a20.482,20.482,0,0,0-3.238,10.267c0,5.534,3.238,26.938,3.238,26.938s9.295-.522,14.1-2.3C1650.686,1451.86,1656.43,1415.943,1656.43,1415.943Z" transform="translate(-1631.912 -1379.26)"/><path class="b" d="M1781.06,1768.215a176.639,176.639,0,0,1,17.172,16.537l-14.178-9.02Z" transform="translate(-1745.905 -1693.117)"/><path class="d" d="M1701.168,1340.706a.51.51,0,0,0-.505-.515h0a.509.509,0,0,0-.007,1.018v0h.017v0A.509.509,0,0,0,1701.168,1340.706Z" transform="translate(-1677.732 -1332.453)"/><path class="d" d="M1726.949,1345.26a.51.51,0,0,0-.505-.515h0a.509.509,0,0,0-.007,1.018v0h.017v0A.509.509,0,0,0,1726.949,1345.26Z" transform="translate(-1699.456 -1336.291)"/></g><g transform="translate(73.381 194.86)"><rect class="l" width="40.533" height="20.598" transform="matrix(-1, -0.03, 0.03, -1, 40.515, 21.794)"/><g transform="translate(1.342 1.017)"><path class="m" d="M567.007,1264.645l37.889,1.127-.554,18.632-37.889-1.127Zm36.628,2.315-35.441-1.054-.481,16.184,35.441,1.054Z" transform="translate(-566.453 -1264.645)"/></g><path class="m" d="M639.9,1282.018c.138-4.639,3.673-8.3,7.9-8.172s7.534,3.988,7.4,8.626-3.673,8.3-7.9,8.171S639.767,1286.656,639.9,1282.018Z" transform="translate(-626.999 -1271.378)"/><path class="l" d="M670.312,1299.28a1.417,1.417,0,0,0,.73,1.056,1.23,1.23,0,0,0,.035-.178c.026-.722.045-1.443.078-2.165.007-.158-.044-.218-.192-.271a10.09,10.09,0,0,1-1.02-.425,2.447,2.447,0,0,1-1.368-2.788,2.77,2.77,0,0,1,2.48-2.513c.263-.049.342-.158.327-.4-.011-.178.009-.358.016-.554l.931.032-.029.836a3.023,3.023,0,0,1,2.627,2.969l-1.674.125a2.229,2.229,0,0,0-1-1.494c-.014.4-.026.747-.038,1.093-.016.472-.025.945-.053,1.417a.269.269,0,0,0,.207.32,3.588,3.588,0,0,1,1.44.874,2.758,2.758,0,0,1,.57,2.93,2.435,2.435,0,0,1-2.109,1.664c-.068.01-.136.02-.2.032a.921.921,0,0,0-.1.03c-.008.222-.016.45-.024.7l-.945-.033c.006-.166,0-.336.021-.5s-.053-.236-.218-.269a2.53,2.53,0,0,1-1.753-1.156,2.682,2.682,0,0,1-.384-1.164Zm.9-3.357c.029-.85.058-1.676.087-2.5a1.278,1.278,0,0,0-1.135,1.157A1.263,1.263,0,0,0,671.208,1295.923Zm.824,4.466a1.228,1.228,0,0,0,.872-1.112,1.185,1.185,0,0,0-.8-1.1C672.084,1298.9,672.059,1299.629,672.033,1300.388Z" transform="translate(-651.125 -1285.868)"/><path class="m" d="M767.974,1323.982a1.117,1.117,0,1,0,1.149-1.083A1.117,1.117,0,0,0,767.974,1323.982Z" transform="translate(-734.917 -1312.713)"/><path class="m" d="M594.219,1318.813a1.117,1.117,0,1,0,1.149-1.083A1.116,1.116,0,0,0,594.219,1318.813Z" transform="translate(-588.507 -1308.358)"/></g><g transform="translate(117.415 0)"><rect class="n" width="40.533" height="20.598" transform="matrix(0.286, 0.958, -0.958, 0.286, 19.739, 0)"/><g transform="translate(1.313 1.539)"><path class="m" d="M856.9,71.429,846.068,35.1l17.863-5.327L874.764,66.1Zm-9.309-35.5,10.133,33.977,15.516-4.627L863.108,31.3Z" transform="translate(-846.068 -29.777)"/></g><path class="m" d="M894.585,128.27c-4.447,1.326-9.031-.88-10.238-4.929s1.419-8.405,5.866-9.731,9.031.881,10.238,4.929S899.032,126.943,894.585,128.27Z" transform="translate(-876.762 -98.553)"/><path class="l" d="M910.043,143.295a1.418,1.418,0,0,0,.773-1.025,1.2,1.2,0,0,0-.18.022c-.693.2-1.385.41-2.08.606-.152.043-.193.11-.2.268a10.092,10.092,0,0,1-.083,1.1,2.447,2.447,0,0,1-2.217,2.175,2.771,2.771,0,0,1-3.165-1.565c-.129-.234-.257-.275-.485-.184-.166.066-.342.1-.531.159l-.262-.894.8-.235a3.023,3.023,0,0,1,1.993-3.426l.645,1.549a2.229,2.229,0,0,0-1.1,1.423l1.049-.307c.454-.133.905-.274,1.362-.4a.269.269,0,0,0,.239-.3,3.591,3.591,0,0,1,.378-1.641,2.759,2.759,0,0,1,2.6-1.462,2.434,2.434,0,0,1,2.242,1.479c.031.061.062.123.094.183a.894.894,0,0,0,.059.081l.671-.2.266.908c-.16.047-.32.105-.484.139s-.208.124-.187.292a2.531,2.531,0,0,1-.547,2.027,2.688,2.688,0,0,1-.984.73Zm-3.469.2-2.4.7a1.277,1.277,0,0,0,1.455.714A1.263,1.263,0,0,0,906.574,143.5Zm3.981-2.185a1.229,1.229,0,0,0-1.33-.479,1.185,1.185,0,0,0-.794,1.1Z" transform="translate(-891.561 -120.413)"/><path class="m" d="M906.852,74.291a1.117,1.117,0,1,0-1.389-.751A1.116,1.116,0,0,0,906.852,74.291Z" transform="translate(-894.763 -63.904)"/><path class="m" d="M956.53,240.874a1.117,1.117,0,1,0-1.389-.751A1.117,1.117,0,0,0,956.53,240.874Z" transform="translate(-936.623 -204.27)"/></g><g transform="translate(224.467 54.996)"><rect class="n" width="40.533" height="20.598" transform="translate(44.945 19.563) rotate(161.755)"/><g transform="translate(1.554 1.341)"><path class="m" d="M1527.828,389.843l36-11.868,5.836,17.7-36,11.868Zm35.22-10.321-33.674,11.1L1534.444,406l33.674-11.1Z" transform="translate(-1527.828 -377.975)"/></g><path class="m" d="M1611.96,429.548c-1.453-4.407.622-9.052,4.634-10.375s8.442,1.178,9.9,5.585-.622,9.052-4.634,10.375S1613.413,433.955,1611.96,429.548Z" transform="translate(-1596.775 -411.05)"/><path class="l" d="M1640.094,444.936a1.418,1.418,0,0,0,1.046.744,1.233,1.233,0,0,0-.028-.179c-.222-.687-.45-1.372-.666-2.062-.047-.151-.115-.19-.273-.189a10.053,10.053,0,0,1-1.1-.052,2.448,2.448,0,0,1-2.237-2.154,2.771,2.771,0,0,1,1.473-3.209c.231-.135.267-.265.17-.49-.07-.164-.113-.339-.174-.527l.886-.287.258.8a3.023,3.023,0,0,1,3.482,1.895l-1.531.689a2.229,2.229,0,0,0-1.454-1.062l.338,1.04c.146.45.3.9.434,1.35a.269.269,0,0,0,.3.231,3.591,3.591,0,0,1,1.652.331,2.758,2.758,0,0,1,1.536,2.559,2.435,2.435,0,0,1-1.415,2.284c-.06.033-.121.065-.18.1a.877.877,0,0,0-.079.061l.215.665-.9.292c-.051-.158-.114-.316-.153-.48s-.13-.2-.3-.179a2.53,2.53,0,0,1-2.042-.488,2.689,2.689,0,0,1-.758-.963Zm-.3-3.461-.772-2.383a1.278,1.278,0,0,0-.672,1.474A1.264,1.264,0,0,0,1639.791,441.475Zm2.3,3.917a1.229,1.229,0,0,0,.44-1.343,1.185,1.185,0,0,0-1.123-.762Z" transform="translate(-1618.058 -425.976)"/><path class="m" d="M1735.872,439.207a1.117,1.117,0,1,0,.711-1.41A1.117,1.117,0,0,0,1735.872,439.207Z" transform="translate(-1701.529 -426.994)"/><path class="m" d="M1570.779,493.632a1.117,1.117,0,1,0,.711-1.41A1.117,1.117,0,0,0,1570.779,493.632Z" transform="translate(-1562.418 -472.854)"/></g><path class="o" d="M642.286,1053.656s-24.479,16.771-5.153,35.935c0,0-9.985,28.827,22.224,27.217,0,0,5.315,9.824,16.588,4.831,0,0,12.562,4.992,15.138-5.637,0,0,15.782.717,13.689-16.23,0,0,15.138-6.156,6.12-20.167s-34.947-18.359-34.947-18.359l-29.31-4.591Z" transform="translate(-545.025 -890.983)"/><path class="o" d="M1184.147,1005.534s-9.824,8.857,1.771,15.944c0,0-6.6,8.858,2.255,16.266,0,0,18.2,21.258,31.887-4.831,0,0,30.76,8.052,24.962-22.868,0,0,17.071-6.764,2.9-25.445,0,0,9.926-17.071-9.048-21.9s-51.022,22.224-51.022,22.224Z" transform="translate(-1008.94 -813.85)"/><g transform="translate(202.398 148.106)"><rect class="n" width="40.533" height="20.598" transform="matrix(-0.929, -0.37, 0.37, -0.929, 37.656, 34.135)"/><g transform="translate(1.583 1.395)"><path class="m" d="M1394.675,969.96l35.215,14.027-6.9,17.317-35.215-14.027Zm33.624,14.712-32.939-13.121-5.991,15.042,32.939,13.121Z" transform="translate(-1387.777 -969.96)"/></g><path class="m" d="M1472.915,1022.036c1.717-4.311,6.291-6.539,10.215-4.976s5.714,6.326,4,10.636-6.291,6.539-10.215,4.976S1471.2,1026.348,1472.915,1022.036Z" transform="translate(-1457.384 -1007.832)"/><path class="l" d="M1498.8,1042.1a1.417,1.417,0,0,0,.324,1.242,1.242,1.242,0,0,0,.094-.155c.272-.669.537-1.341.814-2.007a.231.231,0,0,0-.088-.321,10.009,10.009,0,0,1-.813-.749,2.447,2.447,0,0,1-.331-3.088,2.771,2.771,0,0,1,3.19-1.513c.264.044.375-.031.445-.266.051-.171.131-.333.2-.515l.864.349-.313.776a3.024,3.024,0,0,1,1.452,3.689l-1.615-.455a2.229,2.229,0,0,0-.433-1.748l-.41,1.014c-.177.439-.347.88-.535,1.314a.269.269,0,0,0,.085.372,3.594,3.594,0,0,1,1.053,1.314,2.759,2.759,0,0,1-.467,2.948,2.435,2.435,0,0,1-2.551.842c-.067-.013-.135-.028-.2-.039a.883.883,0,0,0-.1,0l-.262.648-.877-.354c.062-.154.116-.316.192-.466s.031-.24-.113-.328a2.531,2.531,0,0,1-1.251-1.686,2.686,2.686,0,0,1,.038-1.225Zm1.991-2.848.938-2.322a1.278,1.278,0,0,0-1.463.7A1.264,1.264,0,0,0,1500.793,1039.251Zm-.754,4.478a1.229,1.229,0,0,0,1.2-.746,1.185,1.185,0,0,0-.371-1.305Z" transform="translate(-1478.318 -1023.139)"/><path class="m" d="M1594.932,1095.168a1.117,1.117,0,1,0,1.451-.624A1.117,1.117,0,0,0,1594.932,1095.168Z" transform="translate(-1560.681 -1073.475)"/><path class="m" d="M1433.439,1030.84a1.117,1.117,0,1,0,1.451-.624A1.117,1.117,0,0,0,1433.439,1030.84Z" transform="translate(-1424.603 -1019.271)"/></g><path class="p" d="M362.092,986.031a4.611,4.611,0,0,0-5.653-3.424A6.788,6.788,0,0,0,348.278,979a8.361,8.361,0,0,0-15.019,1.461,5.736,5.736,0,0,0-8.524,5.012c0,.188.01.373.027.557Z" transform="translate(-288.052 -824.669)"/><path class="p" d="M1751.3,1143.61a4.985,4.985,0,0,0-6.113-3.7,7.34,7.34,0,0,0-8.825-3.9,9.041,9.041,0,0,0-16.24,1.58,6.2,6.2,0,0,0-9.217,5.42c0,.2.011.4.03.6Z" transform="translate(-1456.075 -956.691)"/><path class="q" d="M811.137,1312.264l-.427.857-1.4,1.438s-2.214,1.476-2.322,1.557-2.6,1.074-2.6,1.074l-2.671-.027-3.327-.528-.176-.009-.872,1.49-1.409,1.651-2.456,1.6-2.577.926-3.046.456h-.591s-.577.752-.631.832-1.869,1.059-1.869,1.059c-3.721,2.549-9.324-.778-9.324-.778a8.212,8.212,0,0,1-1.667,6.162,43.194,43.194,0,0,0,6.981.172s5.315,9.824,16.588,4.832c0,0,12.562,4.992,15.139-5.637,0,0,15.782.717,13.689-16.23a18.431,18.431,0,0,0,4.657-2.981c.146-2,.228-3.283.228-3.283l-13.85,4.08C815.544,1315.185,811.137,1312.264,811.137,1312.264Z" transform="translate(-666.421 -1104.369)"/><path class="o" d="M551.318,108.987s-33.981-8.052-32.853,26.895c0,0-5.959.644-4.509,8.858,0,0-25.123,9.5-9.824,36.88,0,0-5.637,3.865,0,11.917,0,0-10.468,34.625,20.453,42.194,0,0-1.772,9.18,7.73,7.569,0,0,3.543,26.895,32.692,17.715,0,0,6.442,9.456,18.037,1.91,0,0,20.131,23.536,43.8-3.037,0,0,16.266,6.12,18.842-10.307,0,0,13.045,3.543,12.723-9.341,0,0,18.2,4.509,17.232-15.3,0,0,9.5-3.221,5.315-12.723,0,0,12.884-4.831,5.959-20.292,0,0,24.8-21.419-3.865-39.456,0,0,2.255-8.535-4.992-9.18,0,0,4.026-9.985-7.247-13.367,0,0-.966-37.846-37.363-25.606,0,0-2.738-6.12-10.307-3.221,0,0-3.382-10.307-13.045-3.543,0,0-19.809-23.03-40.745,2.094C569.355,99.646,554.216,93.688,551.318,108.987Z" transform="translate(-435.053 -77.223)"/><path class="q" d="M1220.065,1273.271s10.381,2.717,17.945-1.068c-8.384,1.025-8.833-4.031-8.833-4.031s-3.624-.913-3.7-.926-2.51-1.61-2.51-1.61l-2.657-2.349-2.416-3.785-.552-1.384-2.32.068-3.758-.333-3.275-1.3-3.355-2.55-2.089-2.267-.3-.6s-2.067.107-2.147.107-2.63-1.059-2.63-1.059l-2.752-2.806c-.953,6.871-4.925,4.214-4.925,4.214a7.03,7.03,0,0,1-9.04-.547c-1.079,3.124-.732,7.192,5.175,10.8,0,0-6.6,8.858,2.255,16.266C1188.178,1278.1,1206.376,1299.361,1220.065,1273.271Z" transform="translate(-1008.944 -1054.21)"/><path class="q" d="M674.3,992.611l-4.228,1.02s-5.435-.564-5.556-.684-4.147-2.456-4.147-2.456l-3.156-4.83-.809-.685s-6.019.684-6.18.644S646,983.776,646,983.776s-2.875-2.375-3.077-2.733-.224-.175-.224-.175-8.455,4.59-8.777,4.791-6,.926-6,.926l-6.361-.846-5.435-2.577L611,979.7l-4.053.768-2.7.2-5.556-.684-4.791-3.141-1.946-3.557c-6.979,3.436-8.589-5.153-8.589-5.153-10.069,5.142-19.567,1.449-24.8-1.6,3.369,4.2,8.463,7.689,16.049,9.546,0,0-1.771,9.18,7.73,7.569,0,0,3.543,26.895,32.692,17.715,0,0,6.442,9.456,18.037,1.91,0,0,20.131,23.536,43.8-3.037,0,0,16.266,6.12,18.842-10.307C684.447,1000.878,674.3,992.611,674.3,992.611Z" transform="translate(-485.082 -817.569)"/><path class="r" d="M848.833,1041.7c0,.565,18.78,17.737,34.513,53.65v29.633s-8.536-1.611-17.257-20.131l3.518-15.513s-.107-4.242-.107-3.759-2.845,12.347-5.1,14.977l-4.348-8-2.577,1.342s14.065,29.2,16.427,31.565,9.663,8.375,10.307,13.1-1.181,22.654,0,22.439,13.894-1.4,14.194-2.469-.988-39.3-.988-39.3,14.494-17.823,21.473-21.151,24.8-12.562,24.8-12.562l-2.791-1.5s-23.083,13.313-25.016,11.917,6.871-22.654,6.871-22.654l-2.791,1.057s-7.3,22.348-8.482,23.1-14.544,13.421-14.466,11.917-.566-40.173-.566-40.173l20.185-17.053h-1.718l-18.654,13.421,3.946-22.761-1.8.322s-6.034,24.372-7.538,25.445-8.7-27.485-8.7-27.485l-3.113,1.192s5.466,38.962,4.29,40.036-15.134-21.473-15.134-21.473-.322-6.764,3.865-16.964c0,0-3.543,1.074-5.261,14.172l-17.983-18.574Z" transform="translate(-729.67 -879.028)"/><path class="o" d="M830.39,829.045l-3.445,22.525,4.975.424,5.677-1.168,5.315,3.946,6.724,2.778s5.637.362,5.878.362,8.737-3.1,8.737-3.1l4.883-2.5,2.284,2.336,4.832,2.577,7.327-.845-.041.548s2.055,3.887,2.3,4.106,5.4,3.359,5.4,3.359l5.274.4,5.113-3.761L851,813.826Z" transform="translate(-711.227 -688.896)"/><path class="q" d="M873.954,1327.118l2.523-1.861,1.4-1.736.523-.979,2.859.523,4.295-.429,1.369-.376a33.247,33.247,0,0,0,1.557-4.456c0-.671.215-2.577-1.745-2.818s-4.456-2.067-7.784-.322-8.133,2.094-8.482,4.67-2.765,3.516-.725,4.939S873.954,1327.118,873.954,1327.118Z" transform="translate(-746.604 -1110.284)"/><path class="s" d="M850.465,1029.164a14.827,14.827,0,0,1-8.543-1.467,11.021,11.021,0,0,1-2.558-1.894,20.168,20.168,0,0,1-3.207-4.036,14.981,14.981,0,0,0,4.672-2.333c-3.479,1.092-7.3,2.027-10.973,1.593a12.983,12.983,0,0,1-4.654-1.364,17.644,17.644,0,0,1-3.446-2.511,37.3,37.3,0,0,0,2.861-2.549c-4.325,3.091-9.088,5.9-14.364,6.936a20.836,20.836,0,0,1-8.367-.01,22.844,22.844,0,0,1-7.352-3.056,32.612,32.612,0,0,1-8.889-8.346,24.614,24.614,0,0,0,4.016,5.621,30.741,30.741,0,0,1-9.7.287,13.06,13.06,0,0,1-9.24-6.585,9.8,9.8,0,0,0,4.372,6.242,12.462,12.462,0,0,0,6.209,1.936,16.38,16.38,0,0,0,3.69-.247,19.005,19.005,0,0,0,3.886-1.13q.448-.183.886-.389.321.343.652.676.734.737,1.524,1.414a21.477,21.477,0,0,0,14.909,5.426c5.37-.258,10.413-2.7,14.591-5.974l.248-.2a10.2,10.2,0,0,0,5.234,4.57,14,14,0,0,0,9.06.048,11.574,11.574,0,0,0,6.487,7.747,11.963,11.963,0,0,0,10.6-.8,23.555,23.555,0,0,1-2.6.389C849.6,1029.243,851.329,1029.084,850.465,1029.164Z" transform="translate(-663.85 -853.734)"/><path class="q" d="M1284.427,1223.718l.805,6.054s3.865,1.059,3.973,1.059,4.268-.188,4.268-.188l10.28,3.623,1.487,3.712,1.492,3.159,1.342,1.745s9.233.725,9.233.59-17.8-17.232-17.8-17.232l-6.442-3.087Z" transform="translate(-1096.712 -1033.806)"/><path class="s" d="M849.767,1343.651a10.177,10.177,0,0,1-3.194,1.609,12.067,12.067,0,0,1-3.563.476,20.7,20.7,0,0,1-3.5-.359c.014-.031.029-.061.043-.092a8.281,8.281,0,0,0,.573-1.861,11.645,11.645,0,0,1-.811,1.744,12.528,12.528,0,0,1-1.052,1.587,11.935,11.935,0,0,1-1.274,1.4,10.221,10.221,0,0,1-1.481,1.164,10.413,10.413,0,0,1-1.653.9l-.214.1-.22.087-.442.171-.451.147c-.149.054-.3.1-.455.138a18.756,18.756,0,0,1-3.513.594c.064-.13.124-.262.176-.4a5.938,5.938,0,0,0,.385-2.43,10.063,10.063,0,0,1-.772,2.257,5.755,5.755,0,0,1-1.422,1.8,6.6,6.6,0,0,1-2.021,1.121,10.224,10.224,0,0,1-2.334.513,6.01,6.01,0,0,0,2.454-.108,5.949,5.949,0,0,0,1.181-.425,5.751,5.751,0,0,0,1.067-.684,5.032,5.032,0,0,0,1.264-1.6,12.444,12.444,0,0,0,3.636-.226,10.523,10.523,0,0,0,3.632-1.5,10.111,10.111,0,0,0,2.8-2.766,10.224,10.224,0,0,0,.9-1.6,12.686,12.686,0,0,0,3.5.761c.156.01.312.024.469.03h.47c.157,0,.314-.005.471-.016s.314-.016.471-.031a11.22,11.22,0,0,0,1.855-.362,9.743,9.743,0,0,0,1.748-.729,8.9,8.9,0,0,0,1.555-1.072,8.061,8.061,0,0,0,2.222-2.974A10.481,10.481,0,0,1,849.767,1343.651Z" transform="translate(-707.538 -1133.111)"/><path class="s" d="M1304.522,1267.52a13.307,13.307,0,0,1-4.185-2.087,15.766,15.766,0,0,1-3.287-3.361,27.025,27.025,0,0,1-2.366-3.952c.043-.01.087-.017.13-.028a10.84,10.84,0,0,0,2.4-.856,15.194,15.194,0,0,1-2.462.515,16.409,16.409,0,0,1-2.486.14,15.654,15.654,0,0,1-2.461-.242,13.366,13.366,0,0,1-2.378-.641,13.591,13.591,0,0,1-2.241-1.024l-.272-.147-.263-.163-.525-.328-.507-.358c-.174-.114-.338-.24-.5-.369a24.518,24.518,0,0,1-3.372-3.215c.187-.035.372-.075.554-.126a7.766,7.766,0,0,0,2.848-1.5,13.19,13.19,0,0,1-2.969.957,7.52,7.52,0,0,1-3-.081,8.633,8.633,0,0,1-2.756-1.241,13.373,13.373,0,0,1-2.363-2.044,7.858,7.858,0,0,0,2.033,2.487,7.765,7.765,0,0,0,1.369.905,7.529,7.529,0,0,0,1.552.583,6.58,6.58,0,0,0,2.671.068,16.272,16.272,0,0,0,3.082,3.633,13.76,13.76,0,0,0,4.419,2.628,13.219,13.219,0,0,0,5.087.768,13.4,13.4,0,0,0,2.381-.317,16.593,16.593,0,0,0,1.941,4.26c.112.171.219.346.335.515l.368.493c.119.167.251.325.385.48s.262.317.4.469a14.648,14.648,0,0,0,1.831,1.661,12.737,12.737,0,0,0,2.131,1.261,11.673,11.673,0,0,0,2.34.791,10.543,10.543,0,0,0,4.855,0A13.7,13.7,0,0,1,1304.522,1267.52Z" transform="translate(-1086.29 -1054.211)"/><path class="t" d="M970.61,1684.8H944.4a2.78,2.78,0,0,0-2.7,3.424l9.556,40.3a2.777,2.777,0,0,0,2.7,2.138h31.49a2.776,2.776,0,0,0,2.7-2.138l9.556-40.3a2.78,2.78,0,0,0-2.7-3.424Z" transform="translate(-807.853 -1422.802)"/><path class="u" d="M950.632,1684.8H944.4a2.78,2.78,0,0,0-2.7,3.424l9.556,40.3a2.777,2.777,0,0,0,2.7,2.138h31.49a2.776,2.776,0,0,0,2.7-2.138l.544-2.291C964.485,1719.513,954.42,1697.128,950.632,1684.8Z" transform="translate(-807.853 -1422.802)"/><g transform="translate(117.046 40.157)"><path class="q" d="M838.307,295.518l.94-3.167s1.637-3.489,1.771-3.57,2.738-2.228,3.114-2.523a28.645,28.645,0,0,1,2.657-1.154c.188-.107.95-.648.95-.648l1.063-1.9s2.711-2.523,2.792-2.684,3.087-1.422,3.087-1.422,2.711-.671,2.818-.671,3.6.134,3.7.134a25.468,25.468,0,0,1,2.818.59c.349.161,3.087,1.449,3.087,1.449l-4.563,17.205s-5.261,4.831-14.387,3.758-13.528-1.074-12.669-1.5S838.307,295.518,838.307,295.518Z" transform="translate(-835.383 -277.365)"/><path class="s" d="M857.2,328.6a10.586,10.586,0,0,1,5.48-8.363,13.419,13.419,0,0,1,8.853-1.139,17.039,17.039,0,0,0-9.156,2.151,12.453,12.453,0,0,0-5.177,7.35C857.249,327.8,857.407,327.825,857.2,328.6Z" transform="translate(-853.768 -311.947)"/><path class="s" d="M931.706,277.56a18.875,18.875,0,0,0-11.1-1.39c-3.6.807-6.245,3.336-8.148,6.382a11.746,11.746,0,0,1,6.382-6.588,14.986,14.986,0,0,1,12.863,1.6C930.841,277.2,930.912,277.06,931.706,277.56Z" transform="translate(-900.331 -275.163)"/></g><g transform="translate(73.277 125.188)"><path class="q" d="M561.993,822.348l2.635-1.993s3.388-1.839,3.543-1.824,3.526-.17,4-.185a28.585,28.585,0,0,1,2.824.646c.215.025,1.15.042,1.15.042l1.983-.9s3.679-.424,3.839-.506,3.329.685,3.329.685,2.581,1.067,2.667,1.131,2.817,2.241,2.9,2.3a25.431,25.431,0,0,1,1.919,2.147c.185.337,1.626,3,1.626,3L580.538,838.04s-7.1.77-13.813-5.506-10.256-8.887-9.31-8.723S561.993,822.348,561.993,822.348Z" transform="translate(-557.265 -817.282)"/><path class="s" d="M595.582,822.766a10.611,10.611,0,0,1,9.429-3.476,13.39,13.39,0,0,1,7.747,4.325,17,17,0,0,0-8.336-3.671,12.528,12.528,0,0,0-8.839,2.822C596.095,822.149,596.2,822.265,595.582,822.766Z" transform="translate(-589.552 -818.607)"/><path class="s" d="M693.427,824.72a19.2,19.2,0,0,0-7.547-7.438,11.754,11.754,0,0,0-5.372-1.212,15.84,15.84,0,0,0-5.537,1.257,11.747,11.747,0,0,1,9.323-1.438,15,15,0,0,1,9.134,8.831C692.942,823.919,693.084,823.846,693.427,824.72Z" transform="translate(-656.446 -815.469)"/></g><g transform="translate(179.339 125.752)"><path class="q" d="M1234.6,836.77l1.327-3.026s2.059-3.258,2.2-3.321,2.994-1.869,3.4-2.115a28.561,28.561,0,0,1,2.78-.814c.2-.083,1.024-.525,1.024-.525l1.291-1.755s3-2.166,3.1-2.315,3.24-1.027,3.24-1.027,2.773-.328,2.88-.315,3.552.581,3.659.595a25.508,25.508,0,0,1,2.723.937c.326.2,2.882,1.823,2.882,1.823l-6.671,16.5s-5.822,4.138-14.743,1.936-13.288-2.751-12.383-3.07S1234.6,836.77,1234.6,836.77Z" transform="translate(-1231.202 -821.163)"/><path class="s" d="M1257.2,864.221a10.635,10.635,0,0,1,6.458-7.606,13.434,13.434,0,0,1,8.947-.036,17.039,17.039,0,0,0-9.353.994,12.453,12.453,0,0,0-6.052,6.648C1257.348,863.433,1257.5,863.481,1257.2,864.221Z" transform="translate(-1253.109 -850.042)"/><path class="s" d="M1339.079,822.572a18.871,18.871,0,0,0-10.837-2.762c-3.668.352-6.612,2.532-8.88,5.317a11.747,11.747,0,0,1,7.153-5.741,14.987,14.987,0,0,1,12.564,3.186C1338.266,822.109,1338.354,821.976,1339.079,822.572Z" transform="translate(-1305.488 -819.052)"/></g><g transform="translate(214.62 76.511)"><path class="n" d="M0,0H40.533V20.6H0Z" transform="translate(29.286 4.69) rotate(103.161)"/><g transform="translate(1.252 1.502)"><path class="m" d="M1463.344,552.622l8.631-36.91,18.151,4.245-8.631,36.91Zm9.545-35.439-8.073,34.525,15.766,3.687,8.073-34.525Z" transform="translate(-1463.344 -515.712)"/></g><ellipse class="m" cx="7.649" cy="8.403" rx="7.649" ry="8.403" transform="translate(4.688 27.621) rotate(-76.838)"/><path class="l" d="M1520.268,629.081a1.418,1.418,0,0,0,1.18-.505,1.224,1.224,0,0,0-.167-.07c-.7-.169-1.406-.331-2.107-.506a.231.231,0,0,0-.3.135,10.064,10.064,0,0,1-.619.915,2.448,2.448,0,0,1-3,.787,2.771,2.771,0,0,1-1.971-2.93c0-.267-.087-.366-.329-.4-.176-.025-.349-.08-.54-.126l.217-.906.814.195a3.023,3.023,0,0,1,3.432-1.984c-.07.55-.139,1.1-.21,1.665a2.23,2.23,0,0,0-1.664.688l1.063.254c.46.11.922.212,1.379.333a.269.269,0,0,0,.355-.139,3.589,3.589,0,0,1,1.143-1.237,2.758,2.758,0,0,1,2.984.023,2.434,2.434,0,0,1,1.212,2.4c0,.069-.007.137-.009.206a.866.866,0,0,0,.011.1l.68.163-.22.92c-.161-.039-.329-.067-.489-.12s-.242,0-.307.16a2.531,2.531,0,0,1-1.481,1.488,2.692,2.692,0,0,1-1.217.145C1520.156,630.176,1520.21,629.642,1520.268,629.081Zm-3.112-1.545-2.436-.582a1.277,1.277,0,0,0,.908,1.342A1.263,1.263,0,0,0,1517.156,627.536Zm4.541.079a1.229,1.229,0,0,0-.917-1.076,1.185,1.185,0,0,0-1.236.561Z" transform="translate(-1503.433 -605.152)"/><path class="m" d="M1561.9,557.326a1.117,1.117,0,1,0-.833-1.341A1.116,1.116,0,0,0,1561.9,557.326Z" transform="translate(-1544.408 -547.418)"/><path class="m" d="M1522.317,726.593a1.117,1.117,0,1,0-.833-1.342A1.117,1.117,0,0,0,1522.317,726.593Z" transform="translate(-1511.057 -690.046)"/></g><g transform="translate(208.593 97.942)"><path class="q" d="M1420.422,660.059l1.327-3.026s2.059-3.258,2.2-3.321,2.994-1.869,3.4-2.115a28.609,28.609,0,0,1,2.78-.814c.2-.083,1.024-.525,1.024-.525l1.291-1.755s3-2.166,3.1-2.315,3.24-1.027,3.24-1.027,2.774-.328,2.88-.315,3.552.581,3.658.595a25.474,25.474,0,0,1,2.723.937c.326.2,2.882,1.823,2.882,1.823l7.183,14.3s-13.733,12.187-22.654,9.985-19.232-8.595-18.326-8.914S1420.422,660.059,1420.422,660.059Z" transform="translate(-1417.085 -644.452)"/><path class="s" d="M1442.694,687.51a10.636,10.636,0,0,1,6.459-7.606,13.434,13.434,0,0,1,8.947-.035,17.039,17.039,0,0,0-9.353.994,12.452,12.452,0,0,0-6.052,6.648C1442.841,686.722,1442.993,686.769,1442.694,687.51Z" transform="translate(-1438.664 -673.33)"/><path class="s" d="M1524.571,645.859a18.871,18.871,0,0,0-10.837-2.761c-3.668.352-6.612,2.532-8.88,5.317a11.749,11.749,0,0,1,7.153-5.741,14.987,14.987,0,0,1,12.564,3.186C1523.758,645.4,1523.846,645.264,1524.571,645.859Z" transform="translate(-1491.041 -642.34)"/></g><g transform="translate(165.34 34.237)"><path class="n" d="M0,0H40.533V20.6H0Z" transform="matrix(-0.228, 0.974, -0.974, -0.228, 29.286, 4.69)"/><g transform="translate(1.252 1.502)"><path class="m" d="M1150.207,284l8.631-36.91,18.151,4.244-8.631,36.91Zm9.545-35.439-8.073,34.525,15.766,3.687,8.073-34.525Z" transform="translate(-1150.207 -247.091)"/></g><path class="m" d="M1188.553,344.151c-4.519-1.057-7.4-5.248-6.44-9.361s5.4-6.591,9.923-5.535,7.4,5.248,6.44,9.361S1193.072,345.208,1188.553,344.151Z" transform="translate(-1175.684 -314.617)"/><path class="l" d="M1207.133,360.459a1.419,1.419,0,0,0,1.18-.506,1.233,1.233,0,0,0-.167-.07c-.7-.169-1.406-.331-2.106-.506a.231.231,0,0,0-.3.135,10.04,10.04,0,0,1-.619.915,2.448,2.448,0,0,1-3,.787,2.771,2.771,0,0,1-1.971-2.93c0-.267-.087-.366-.329-.4-.177-.025-.349-.08-.54-.126l.217-.906.814.195a3.023,3.023,0,0,1,3.432-1.985c-.069.55-.139,1.1-.21,1.665a2.23,2.23,0,0,0-1.664.688l1.064.254c.46.11.922.212,1.378.333a.269.269,0,0,0,.355-.139,3.594,3.594,0,0,1,1.143-1.237,2.759,2.759,0,0,1,2.985.023,2.435,2.435,0,0,1,1.212,2.4c0,.069-.007.137-.009.206a.929.929,0,0,0,.011.1l.68.163-.22.92c-.162-.039-.33-.067-.49-.12s-.242,0-.307.16a2.53,2.53,0,0,1-1.481,1.488,2.69,2.69,0,0,1-1.217.145C1207.021,361.554,1207.075,361.02,1207.133,360.459Zm-3.112-1.545-2.436-.582a1.278,1.278,0,0,0,.908,1.342A1.264,1.264,0,0,0,1204.021,358.914Zm4.541.079a1.23,1.23,0,0,0-.917-1.076,1.185,1.185,0,0,0-1.236.561Z" transform="translate(-1190.298 -336.53)"/><path class="m" d="M1248.761,288.7a1.117,1.117,0,1,0-.833-1.342A1.117,1.117,0,0,0,1248.761,288.7Z" transform="translate(-1231.272 -278.796)"/><path class="m" d="M1209.18,457.972a1.117,1.117,0,1,0-.833-1.341A1.116,1.116,0,0,0,1209.18,457.972Z" transform="translate(-1197.92 -421.425)"/></g><g transform="translate(159.312 55.667)"><path class="q" d="M1107.286,391.437l1.327-3.026s2.059-3.258,2.2-3.321,2.994-1.869,3.4-2.115a28.641,28.641,0,0,1,2.78-.814c.2-.083,1.024-.525,1.024-.525l1.291-1.755s3-2.166,3.1-2.315,3.24-1.027,3.24-1.027,2.773-.328,2.88-.315,3.552.581,3.658.595a25.506,25.506,0,0,1,2.723.937c.326.2,2.882,1.823,2.882,1.823l7.183,14.3s-13.733,12.187-22.654,9.985-19.232-8.595-18.326-8.914S1107.286,391.437,1107.286,391.437Z" transform="translate(-1103.949 -375.83)"/><path class="s" d="M1129.559,418.888a10.635,10.635,0,0,1,6.458-7.606,13.433,13.433,0,0,1,8.947-.035,17.04,17.04,0,0,0-9.353.994,12.451,12.451,0,0,0-6.052,6.648C1129.706,418.1,1129.858,418.148,1129.559,418.888Z" transform="translate(-1125.528 -404.709)"/><path class="s" d="M1211.436,377.239a18.872,18.872,0,0,0-10.837-2.762c-3.668.352-6.612,2.532-8.88,5.317a11.746,11.746,0,0,1,7.153-5.741,14.988,14.988,0,0,1,12.564,3.186C1210.622,376.777,1210.711,376.644,1211.436,377.239Z" transform="translate(-1177.906 -373.72)"/></g><g transform="translate(74.391 36.869)"><rect class="n" width="40.533" height="20.598" transform="matrix(0.106, 0.994, -0.994, 0.106, 20.483, 0)"/><g transform="translate(1.112 1.41)"><path class="m" d="M575.422,302.9l-4.013-37.693,18.536-1.973,4.012,37.693Zm-2.665-36.6,3.753,35.257,16.1-1.714-3.753-35.257Z" transform="translate(-571.41 -263.232)"/></g><path class="m" d="M598.731,355.964c-4.615.491-8.718-2.516-9.165-6.716s2.931-8,7.546-8.5,8.718,2.516,9.165,6.716S603.346,355.473,598.731,355.964Z" transform="translate(-585.563 -327.098)"/><path class="l" d="M615.06,373.238a1.418,1.418,0,0,0,.948-.866,1.212,1.212,0,0,0-.181-.011c-.719.072-1.437.151-2.156.216-.158.014-.21.073-.243.227a10.088,10.088,0,0,1-.283,1.068,2.448,2.448,0,0,1-2.577,1.733,2.771,2.771,0,0,1-2.826-2.117c-.084-.254-.2-.317-.443-.27-.175.034-.356.04-.551.059-.032-.312-.062-.605-.094-.927l.833-.085a3.023,3.023,0,0,1,2.586-3l.351,1.641a2.23,2.23,0,0,0-1.345,1.2l1.088-.111c.47-.048.94-.1,1.411-.14a.269.269,0,0,0,.289-.248,3.592,3.592,0,0,1,.671-1.545,2.759,2.759,0,0,1,2.826-.962,2.435,2.435,0,0,1,1.934,1.865c.02.066.038.132.059.2a.944.944,0,0,0,.043.09l.7-.07.1.941c-.165.017-.333.045-.5.048s-.227.084-.237.253a2.529,2.529,0,0,1-.908,1.893,2.688,2.688,0,0,1-1.1.538Zm-3.448-.434-2.492.253a1.277,1.277,0,0,0,1.3.968A1.264,1.264,0,0,0,611.612,372.8Zm4.313-1.421a1.229,1.229,0,0,0-1.22-.714,1.185,1.185,0,0,0-.982.937Z" transform="translate(-599.995 -350.971)"/><path class="m" d="M628.03,298.355a1.117,1.117,0,1,0-1.229-.992A1.117,1.117,0,0,0,628.03,298.355Z" transform="translate(-616.966 -289.541)"/><path class="m" d="M646.43,471.211a1.117,1.117,0,1,0-1.228-.992A1.117,1.117,0,0,0,646.43,471.211Z" transform="translate(-632.471 -435.193)"/></g><g transform="translate(73.365 55.638)"><path class="q" d="M559.8,397.167l.256-3.294s.871-3.755.985-3.862,2.211-2.751,2.517-3.119a28.6,28.6,0,0,1,2.357-1.685c.161-.144.794-.833.794-.833l.641-2.082s2.123-3.035,2.168-3.209,2.721-2.037,2.721-2.037,2.51-1.223,2.615-1.246,3.545-.621,3.65-.644a25.456,25.456,0,0,1,2.88-.012c.375.085,3.322.771,3.322.771l11.493,11.133s-8.95,16.031-18.1,16.892-20.99-1.778-20.24-2.378S559.8,397.167,559.8,397.167Z" transform="translate(-557.821 -374.858)"/><path class="s" d="M570.994,439.46a10.585,10.585,0,0,1,3.609-9.324,13.419,13.419,0,0,1,8.418-2.967,16.987,16.987,0,0,0-8.284,3.811,12.529,12.529,0,0,0-3.743,8.48C570.873,438.667,571.033,438.662,570.994,439.46Z" transform="translate(-568.834 -418.728)"/><path class="s" d="M631.038,374.479a18.868,18.868,0,0,0-11.142.963c-3.347,1.542-5.409,4.568-6.633,7.946a11.734,11.734,0,0,1,4.984-7.855,15,15,0,0,1,12.79-1.055C630.118,374.311,630.157,374.156,631.038,374.479Z" transform="translate(-604.538 -373.531)"/></g><g transform="translate(126.79 105.341)"><path class="n" d="M0,0H40.533V20.6H0Z" transform="translate(20.36 0) rotate(81.276)"/><g transform="translate(1.167 1.447)"><path class="m" d="M910.457,738.844l-5.749-37.467,18.425-2.827,5.749,37.467ZM906.1,702.4l5.378,35.046,16-2.456-5.378-35.046Z" transform="translate(-904.708 -698.549)"/></g><path class="m" d="M937.594,793.188c-4.587.7-8.825-2.11-9.466-6.286s2.558-8.131,7.145-8.835,8.825,2.11,9.466,6.286S942.181,792.484,937.594,793.188Z" transform="translate(-923.207 -764.015)"/><path class="l" d="M953.635,809.856a1.417,1.417,0,0,0,.906-.909,1.231,1.231,0,0,0-.181,0c-.715.1-1.428.217-2.143.315-.157.021-.206.082-.232.238a10.091,10.091,0,0,1-.234,1.08,2.447,2.447,0,0,1-2.495,1.85,2.771,2.771,0,0,1-2.921-1.984c-.1-.25-.217-.307-.455-.249-.173.042-.353.056-.548.085l-.137-.922.828-.123a3.023,3.023,0,0,1,2.444-3.12l.426,1.623A2.23,2.23,0,0,0,947.608,809l1.082-.16c.468-.07.934-.147,1.4-.2a.269.269,0,0,0,.277-.262,3.593,3.593,0,0,1,.6-1.574,2.758,2.758,0,0,1,2.778-1.091,2.435,2.435,0,0,1,2.018,1.773c.023.065.044.13.068.194a.859.859,0,0,0,.047.088l.691-.1.139.936c-.164.024-.331.06-.5.071s-.223.094-.225.263a2.531,2.531,0,0,1-.82,1.933,2.687,2.687,0,0,1-1.075.588Zm-3.464-.274-2.477.368a1.278,1.278,0,0,0,1.343.907A1.263,1.263,0,0,0,950.171,809.582Zm4.243-1.619a1.229,1.229,0,0,0-1.252-.657,1.186,1.186,0,0,0-.938.982Z" transform="translate(-937.658 -787.363)"/><path class="m" d="M962.579,736.176a1.117,1.117,0,1,0-1.273-.934A1.117,1.117,0,0,0,962.579,736.176Z" transform="translate(-951.221 -726.937)"/><path class="m" d="M988.946,908a1.117,1.117,0,1,0-1.273-.934A1.117,1.117,0,0,0,988.946,908Z" transform="translate(-973.438 -871.717)"/></g><g transform="translate(120.661 131.117)"><path class="q" d="M861.689,870.863l1.327-3.025s2.059-3.258,2.2-3.321,2.994-1.869,3.4-2.115a28.614,28.614,0,0,1,2.78-.814c.2-.083,1.024-.525,1.024-.525l1.292-1.755s3-2.166,3.1-2.315,3.24-1.027,3.24-1.027,2.773-.328,2.88-.315,3.552.581,3.659.595a25.481,25.481,0,0,1,2.723.937c.326.2,2.882,1.823,2.882,1.823l7.183,14.3s-13.733,12.187-22.654,9.985-19.232-8.6-18.326-8.914S861.689,870.863,861.689,870.863Z" transform="translate(-858.352 -855.256)"/><path class="s" d="M883.961,898.314a10.635,10.635,0,0,1,6.458-7.606,13.433,13.433,0,0,1,8.947-.036,17.041,17.041,0,0,0-9.353.994,12.452,12.452,0,0,0-6.052,6.648C884.108,897.526,884.261,897.573,883.961,898.314Z" transform="translate(-879.931 -884.135)"/><path class="s" d="M965.838,856.665A18.871,18.871,0,0,0,955,853.9c-3.668.353-6.612,2.532-8.88,5.317a11.747,11.747,0,0,1,7.153-5.741,14.987,14.987,0,0,1,12.564,3.185C965.024,856.2,965.113,856.069,965.838,856.665Z" transform="translate(-932.308 -853.145)"/></g><g transform="translate(196.053 57.149)"><path class="q" d="M1342.37,386.18l3.11-1.114s3.782-.742,3.927-.681,3.415.892,3.875,1.02a28.568,28.568,0,0,1,2.5,1.461c.2.088,1.084.384,1.084.384l2.162-.267s3.638.7,3.815.665,2.972,1.649,2.972,1.649,2.144,1.79,2.207,1.877,2.018,2.981,2.081,3.067a25.478,25.478,0,0,1,1.189,2.622c.076.377.655,3.347.655,3.347l-16.576,6.488s-7.007-1.388-11.534-9.384-7.129-11.547-6.275-11.108S1342.37,386.18,1342.37,386.18Z" transform="translate(-1337.404 -384.186)"/><path class="s" d="M1378.581,384.656a10.637,10.637,0,0,1,10.1-.466,13.349,13.349,0,0,1,6.032,6.412,17.14,17.14,0,0,0-6.729-5.942,12.5,12.5,0,0,0-9.407,0C1379.255,384.221,1379.325,384.365,1378.581,384.656Z" transform="translate(-1372.101 -383.139)"/><path class="s" d="M1474.106,413.127a19.061,19.061,0,0,0-5.088-9.458,11.712,11.712,0,0,0-4.51-2.615,15.755,15.755,0,0,0-5.8-.5,11.792,11.792,0,0,1,9.446,1.5c3.526,2.379,5.663,6.9,5.956,11.077C1473.883,412.218,1474.041,412.191,1474.106,413.127Z" transform="translate(-1439.615 -397.495)"/></g><g transform="translate(114.263 57.111)"><path class="n" d="M0,0H40.533V20.6H0Z" transform="matrix(0.67, 0.742, -0.742, 0.67, 15.284, 0)"/><g transform="translate(1.607 1.631)"><path class="m" d="M853.32,433.88l-25.413-28.125,13.831-12.5,25.413,28.125Zm-23.683-28.038,23.77,26.308,12.013-10.855L841.65,394.987Z" transform="translate(-827.907 -393.257)"/></g><ellipse class="m" cx="8.403" cy="7.649" rx="8.403" ry="7.649" transform="matrix(0.742, -0.67, 0.67, 0.742, 9.854, 21.931)"/><path class="l" d="M930.984,497.37a1.418,1.418,0,0,0,.257-1.258,1.211,1.211,0,0,0-.153.1c-.539.481-1.074.966-1.617,1.442a.231.231,0,0,0-.062.326,10.064,10.064,0,0,1,.4,1.03,2.447,2.447,0,0,1-1.065,2.917,2.771,2.771,0,0,1-3.531-.05.328.328,0,0,0-.517.042c-.121.131-.265.241-.411.372l-.621-.694.624-.558a3.023,3.023,0,0,1,.324-3.951l1.249,1.121a2.229,2.229,0,0,0-.383,1.759l.815-.729c.352-.315.7-.637,1.06-.943a.269.269,0,0,0,.088-.371,3.594,3.594,0,0,1-.366-1.644,2.759,2.759,0,0,1,1.72-2.44,2.435,2.435,0,0,1,2.661.37c.055.042.108.084.164.125a.918.918,0,0,0,.088.048l.521-.466.631.7c-.124.111-.243.233-.378.334s-.134.2-.043.344a2.531,2.531,0,0,1,.379,2.065,2.686,2.686,0,0,1-.574,1.083Zm-3.044,1.677-1.867,1.67a1.278,1.278,0,0,0,1.62.019A1.263,1.263,0,0,0,927.941,499.047Zm2.653-3.686a1.229,1.229,0,0,0-1.406.14,1.185,1.185,0,0,0-.243,1.335Z" transform="translate(-906.987 -476.175)"/><path class="m" d="M889.355,452.974a1.117,1.117,0,1,0-1.577-.08A1.117,1.117,0,0,0,889.355,452.974Z" transform="translate(-876.506 -440.306)"/><path class="m" d="M1005.9,581.955a1.117,1.117,0,1,0-1.577-.08A1.117,1.117,0,0,0,1005.9,581.955Z" transform="translate(-974.706 -548.989)"/></g><g transform="translate(121.907 75.827)"><path class="q" d="M869.6,519.541l1.327-3.025s2.059-3.258,2.2-3.321,2.994-1.869,3.4-2.115a28.65,28.65,0,0,1,2.78-.814c.2-.083,1.024-.525,1.024-.525l1.291-1.755s3-2.166,3.1-2.315,3.24-1.027,3.24-1.027,2.773-.328,2.88-.315,3.552.581,3.659.595a25.451,25.451,0,0,1,2.723.937c.326.2,2.882,1.823,2.882,1.823l7.183,14.3s-13.733,12.187-22.654,9.985-19.232-8.595-18.326-8.914S869.6,519.541,869.6,519.541Z" transform="translate(-866.267 -503.934)"/><path class="s" d="M891.876,546.991a10.635,10.635,0,0,1,6.458-7.606,13.434,13.434,0,0,1,8.947-.035,17.038,17.038,0,0,0-9.353.994,12.453,12.453,0,0,0-6.052,6.648C892.023,546.2,892.175,546.251,891.876,546.991Z" transform="translate(-887.846 -532.812)"/><path class="s" d="M973.754,505.342a18.874,18.874,0,0,0-10.837-2.762c-3.668.352-6.612,2.532-8.88,5.317a11.747,11.747,0,0,1,7.153-5.741,14.988,14.988,0,0,1,12.564,3.186C972.94,504.879,973.029,504.746,973.754,505.342Z" transform="translate(-940.224 -501.822)"/></g><path class="j" d="M989.5,1857.3a5.357,5.357,0,0,0-.1,1.073,7.329,7.329,0,0,0,.086,1.078,9.513,9.513,0,0,0,.233,1.057,7.794,7.794,0,0,0,.36,1.022l.084-.073a4.863,4.863,0,0,1-.551-.44c-.175-.159-.346-.324-.508-.5s-.316-.355-.466-.539-.291-.377-.432-.569c.123.2.253.405.393.6s.29.381.445.564.321.357.5.521a4.971,4.971,0,0,0,.561.459l.161.11-.077-.183a10.2,10.2,0,0,1-.35-1.008,9.408,9.408,0,0,1-.243-1.041,7.872,7.872,0,0,1-.123-1.062A6.553,6.553,0,0,1,989.5,1857.3Z" transform="translate(-847.102 -1568.155)"/><path class="v" d="M1102.131,1667a1.753,1.753,0,0,0-1.44.246,1.29,1.29,0,0,0-1.356.029,1.441,1.441,0,0,0,1.562,1A1.288,1.288,0,0,0,1102.131,1667Z" transform="translate(-940.749 -1407.75)"/><rect class="g" width="301.278" height="2.638" rx="1.319" transform="translate(17.684 307.835)"/><path class="p" d="M1820.857,923.474a12.613,12.613,0,0,0-17.982,6.715,8.652,8.652,0,0,0-12.858,7.561c0,.283.014.563.041.84h34.189C1823,933.879,1821.93,928.806,1820.857,923.474Z" transform="translate(-1522.733 -779.95)"/><path class="p" d="M121.118,1131.066a4.611,4.611,0,0,0-5.653-3.424,6.787,6.787,0,0,0-8.162-3.605,8.36,8.36,0,0,0-11.077-3.07q-2.42,4.722-4.58,10.1Z" transform="translate(-91.647 -946.88)"/></g></g></svg>