<svg xmlns="http://www.w3.org/2000/svg" width="459.936" height="319.968" viewBox="0 0 459.936 319.968"><defs><style>.a{fill:#fff;}.b{fill:#f1f6fe;}.c,.e{fill:#5d6a7c;}.c{stroke:#5d6a7c;}.d{fill:#f8a492;}.f{fill:#fe875e;}.g{fill:#f7a491;}.h{fill:#1f1f1f;}.i{fill:#f47458;}.j{fill:#13375b;}.k{fill:#62de11;}.l{fill:#f08e76;}.m{fill:#f0f0f0;}.n{fill:#87f440;}</style></defs><rect class="a" width="459.936" height="319.968" transform="translate(459.936 319.968) rotate(180)"/><g transform="translate(26.707 23.074)"><path class="b" d="M220.461,400.385c-16.834-9.383-22.536-41.942-9.092-81.82,9.932-29.463-5.416-55.644-4.275-90.193,3.357-101.6,199.123-120.4,306.86-68.249,99.1,47.966,104.841,184.667,65.49,240.261Z" transform="translate(-201.26 -131.939)"/><path class="c" d="M189.11,1808.8l389.868.363a1.781,1.781,0,0,1,1.7,1.852h0a1.78,1.78,0,0,1-1.7,1.853l-389.868-.363a1.78,1.78,0,0,1-1.7-1.852h0A1.78,1.78,0,0,1,189.11,1808.8Z" transform="translate(-187.411 -1540.529)"/></g><g transform="translate(47.454 53.92)"><g transform="translate(201.376)"><g transform="translate(0 33.658)"><path class="d" d="M1585.5,649.627c4.32.7,4.065,1.406,4.62,1.48.657.089,8.455-3.828,8.455-3.828s23.062-11.382,24.284-12.043l16.646-20.943,12.828,5.917s-18.721,22.265-19.9,23.247-34.252,12.576-37.127,13.695c0,0-2.9,2.65-4.775,4.251s-4.385,2.235-4.984,2.6a20.982,20.982,0,0,1-5.081,1.782c-2.52.548-.42-1.163-.42-1.163s4.458-1.882,4.239-2.222c-.169-.262-2.539.915-5.32,1.551-.714.164-1.421.323-2.071.463-1.707.369-2.457-.607-.742-1.288a16.677,16.677,0,0,1,2.387-.773,13.77,13.77,0,0,0,2.191-.861,18.125,18.125,0,0,0,2.252-.9c-.068-.06.119-.353-.647-.2a42.313,42.313,0,0,1-4.152,1.164c-.78.088-2.4.375-2.4.375s-2.861.274-2.88-.128c-.043-.876,1.719-1.366,2.8-1.344a11.259,11.259,0,0,1,2.393-.6s3.319-1.31,3.126-1.8c-.077-.2-2.086.105-4.218.251-2.253.154-3.886.154-4.006-.282-.191-.693,1.6-.955,1.6-.955s1.582-.231,2.1-.349c.607-.138,2.389-.7,2.389-.7s6.1-2.242,5.883-2.692-1.228-1.394-1.659-1.391-1.2.432-1.63.434-1.356-.08-1.421-.622,2.325-1.663,2.325-1.663A6.767,6.767,0,0,1,1585.5,649.627Z" transform="translate(-1572.903 -603.595)"/><path class="e" d="M1916.82,571.086s4.153,3.773,5.88,5.015c1.436,1.032,8.434,4.4,8.434,4.4s6.962-10.66,10.006-16.006c3.693-6.486,6.25-16.131,5.377-16.392a12.78,12.78,0,0,0-8.934.246C1926.812,553.3,1916.82,571.086,1916.82,571.086Z" transform="translate(-1861.799 -547.416)"/><path class="f" d="M1652.905,860.775c-1.848.292-3.738-.06-4.557-1.752C1648.164,861.03,1651.205,862.025,1652.905,860.775Z" transform="translate(-1636.272 -809.171)"/></g><path class="g" d="M2283.054,1717.959s.46,8.162.464,8.179c.169,1.037.836,3.6.836,4.539,0,3.539-15.7-3-12.182-4.573.319-.142,1.987-1.216,2.092-2.42.161-1.856.571-5.61.571-5.61Z" transform="translate(-2159.868 -1497.032)"/><path class="e" d="M2205.533,1768.325a56.421,56.421,0,0,0,5.574,1.353c1.888.27,4.377-2.008,5.712-1.392,1.47.677,1.413,6.776,1.413,6.776s-19.768,1.736-25.326-.06C2190.7,1774.29,2198,1770.846,2205.533,1768.325Z" transform="translate(-2093.38 -1539.218)"/><path class="g" d="M2446.483,1719.465s.461,8.161.463,8.179c.169,1.036.836,3.6.836,4.538,0,3.539-15.7-3-12.182-4.572.318-.142,2.481-2.017,2.586-3.222.161-1.855.076-4.808.076-4.808Z" transform="translate(-2297.152 -1498.298)"/><path class="e" d="M2370.017,1769.4a56.417,56.417,0,0,0,5.574,1.353c1.888.271,4.377-2.008,5.712-1.393,1.47.678,1.529,6.776,1.529,6.776s-19.626.806-25.442-.06C2355.1,1775.735,2362.481,1771.92,2370.017,1769.4Z" transform="translate(-2231.529 -1540.121)"/><path d="M2369.038,896.923s2.661,13.768,1.576,24.208-1.169,47.523-1.169,47.523l5,59.315-10.682.249s-11.642-59.306-11.425-57.784-3.9-41.758-3.9-41.758l13.879-33.058Z" transform="translate(-2224.363 -806.253)"/><path class="h" d="M2292.148,848.2s12.054,12.7,7.57,26.565c-1.8,5.571-18.6,58.786-18.817,63.136s-5.682,52.428-5.682,52.428l-11.416-.344-2.47-53.453,3.263-72.022,6.929-12.146Z" transform="translate(-2151.195 -766.419)"/><path class="h" d="M1994.109,501.419c3.947-4.4,12.539-10.671,12.539-10.671s5.118-4.371,7.2-5.091c3.071-1.059,8.331-3.883,15.939,7.646,5.445,8.251,39.8,50.975,45.438,52.413L2038.4,563.336c-1.009-8.416-19.211-24.312-21.83-27.279C2010.718,529.427,1990.372,505.588,1994.109,501.419Z" transform="translate(-1926.341 -460.965)"/><path class="g" d="M1977,478l11.472,6.716s.323,9.793-3.428,12.336c-3.147,2.134-5.541-2.988-5.541-2.988s-4.266-5.911-7.506-7.753S1977,478,1977,478Z" transform="translate(-1907.512 -455.448)"/><path class="i" d="M1978.924,482.311a24.026,24.026,0,0,1-2.978,7.43,18.592,18.592,0,0,0-3.951-3.428c-1.5-.85-.543-2.685.914-4.415,2.058-2.143,4.09-3.9,4.09-3.9l2.2,1.291A10.288,10.288,0,0,1,1978.924,482.311Z" transform="translate(-1907.514 -455.448)"/><path class="g" d="M1903.761,370.168c.193-.239,9.623,11.5,8.46,17.006s-6.863,10.531-10.826,9.149c-4.383-1.528-12.531-15.347-9.609-22.057S1903.761,370.168,1903.761,370.168Z" transform="translate(-1840.251 -364.446)"/><path class="j" d="M1879.2,339.05c4.111-2.286,10.817-2.943,15.827-.319,6.16,3.225,7.563,11.34,5.635,16.29s.279,7.749.279,7.749l-3.268-1.909a15.563,15.563,0,0,1-2.158-5.354c-.249-2.375-3.713-1.954-5.4-3.031-1.3-.829-2.964-3.524-5.071-4.922,0,0-5.3-.651-7.913.813C1872.68,350.863,1873.312,342.326,1879.2,339.05Z" transform="translate(-1826.016 -337.031)"/><path class="g" d="M1990.106,429.361c-.03,1.761.8,3.2,1.859,3.22s1.939-1.4,1.969-3.157-.8-3.2-1.859-3.22S1990.136,427.6,1990.106,429.361Z" transform="translate(-1923.359 -411.938)"/></g><g transform="translate(185.951 80.813)"><path class="k" d="M1494.174,877.474h-16.119a1.567,1.567,0,0,1-1.567-1.567h0a1.567,1.567,0,0,1,1.567-1.567h16.119a1.567,1.567,0,0,1,1.567,1.567h0A1.567,1.567,0,0,1,1494.174,877.474Z" transform="translate(-1476.488 -869.192)"/><path class="k" d="M1494.174,986.416h-16.119a1.567,1.567,0,0,1-1.567-1.567h0a1.567,1.567,0,0,1,1.567-1.567h16.119a1.567,1.567,0,0,1,1.567,1.567h0A1.567,1.567,0,0,1,1494.174,986.416Z" transform="translate(-1476.488 -960.705)"/><path class="e" d="M0,0H12.383V28.436H0Z" transform="translate(32.407 29.648) rotate(180)"/><path class="h" d="M1679.055,878.17l11.122-10.2v-8.026l-11.122-10.2Z" transform="translate(-1646.647 -848.522)"/><path class="e" d="M1764.629,919.947l-13.561,1.246-2.62.24v-7.912l16.181,1.486a.743.743,0,0,1,.675.739v3.461A.743.743,0,0,1,1764.629,919.947Z" transform="translate(-1704.918 -902.105)"/><rect class="e" width="112.24" height="3.435" transform="translate(60.385 13.683)"/><g transform="translate(45.594 11.606)"><path class="h" d="M1831,926.58v-5.49l1.643.151v5.188Z" transform="translate(-1819.877 -920.069)"/><path class="h" d="M1807.824,918.962l1.643.151v5.869l-1.643.151Z" transform="translate(-1800.41 -918.281)"/><path class="h" d="M1784.651,916.834l1.643.151v6.55l-1.643.151Z" transform="translate(-1780.944 -916.494)"/><path class="h" d="M1761.477,914.706l1.643.151v7.231l-1.643.151Z" transform="translate(-1761.477 -914.706)"/></g><path class="h" d="M1588.39,873.021l2.121-1.211V843.374l-2.121-1.211Z" transform="translate(-1570.488 -842.163)"/><path class="e" d="M0,0H4.128V30.859H0Z" transform="translate(17.903 30.859) rotate(180)"/><path class="h" d="M1624.552,912.613h0a.8.8,0,0,1-.8-.8V901.184a.8.8,0,0,1,.8-.8h0a.8.8,0,0,1,.8.8V911.81A.8.8,0,0,1,1624.552,912.613Z" transform="translate(-1600.19 -891.068)"/><path class="h" d="M1644.619,912.613h0a.8.8,0,0,1-.8-.8V901.184a.8.8,0,0,1,.8-.8h0a.8.8,0,0,1,.8.8V911.81A.8.8,0,0,1,1644.619,912.613Z" transform="translate(-1617.046 -891.068)"/><path class="h" d="M1664.688,912.613h0a.8.8,0,0,1-.8-.8V901.184a.8.8,0,0,1,.8-.8h0a.8.8,0,0,1,.8.8V911.81A.8.8,0,0,1,1664.688,912.613Z" transform="translate(-1633.904 -891.068)"/></g><path class="d" d="M1776.049,675.609c1.251-1.827,1.8-4.464,3.525-6.475a15.42,15.42,0,0,1,2.558-2.2c8.318-4.866,29.986-17.411,30.829-18.385,1-1.154,15.789-25.725,15.789-25.725l-13.283-3.009-12.98,22.921c-1.084.86-21.688,16.089-21.688,16.089s-4.1,3.2-6.337,4.7a17.746,17.746,0,0,1-3.189,1.422,20.3,20.3,0,0,0-3.978,1.978c-.541.477-1.624,1.495-2.268,2.116s-1.425,1.324-1.727,1.693a4.552,4.552,0,0,1-1.171.744.767.767,0,0,0,.127,1.422,3.318,3.318,0,0,0,2.012-.466c1.491-.7,3.314-2.593,3.41-2.362s-1.754,4.286-1.936,4.764-2.307,5.2-2.416,6.256.526,1.3,1,.911c.407-.331,3.824-6.64,3.824-6.64s.438-.8.608-.344-2.921,6.194-3.223,7.135-.062,1.713.809,1.383c1.058-.4,3.981-6.725,3.981-6.725s.38-.787.64-.513-2.451,5.109-2.482,5.666a.727.727,0,0,0,1.2.641c.862-.548,3.423-6.217,3.423-6.217s.317-.375.416-.111-1.918,4.551-1.768,5.177a.5.5,0,0,0,.6.421C1773.411,681.875,1774.8,677.435,1776.049,675.609Z" transform="translate(-1530.123 -574.578)"/><path class="e" d="M2068.44,520.759s-4.326-1.376-7.1-2.647c-1.858-.851-9.964-4.884-9.964-4.884s3.495-14.741,5.857-20.041c8.67-19.452,18.522-6.037,19.859-2.91C2080.081,497.272,2068.44,520.759,2068.44,520.759Z" transform="translate(-1773.451 -459.529)"/><g transform="translate(0 25.791)"><path class="g" d="M573.218,1702.494c-.244-1.752.3-4.766,1.672-9.481-2.709.006-4.986-1.2-7.755-1.154-.756,4.434-1.927,11.715-1.927,11.715l-.125,5.756,19.276.146s-.161.083-5.843-3.518C578.1,1705.69,573.454,1704.187,573.218,1702.494Z" transform="translate(-524.942 -1500.898)"/><g transform="translate(15.274 191.571)"><path class="g" d="M421.7,1705.933a33.206,33.206,0,0,1-.051-9.789c-2.709.007-5.286-.5-8.055-.461,0,4.561.1,11.33.1,11.33l-.126,5.756,19.276.145s-.16.083-5.843-3.518C426.581,1709.129,421.94,1707.625,421.7,1705.933Z" transform="translate(-412.942 -1695.68)"/><path class="e" d="M410.184,1773.273h19.9c.736-.067.915-.669.66-1.04-.525-.764-4.406-2.6-7.016-3.817-4.577.483-12.621-1.406-13.343-2.469C409.129,1769.468,409.775,1773.182,410.184,1773.273Z" transform="translate(-409.649 -1754.706)"/><path class="e" d="M561.788,1771.85h19.9c.736-.066.915-.668.66-1.04-.525-.764-4.406-2.6-7.016-3.817-4.577.483-12.621-1.406-13.343-2.47C560.733,1768.046,561.379,1771.759,561.788,1771.85Z" transform="translate(-536.999 -1753.51)"/></g><path class="h" d="M487.635,979.144l-5.88,3.289L469.8,1000.76l21.374,50.453s-2.407,7.587-3.191,11.378c-.821,3.966-2.833,38.007-2.833,38.007l9.118.154s8.661-36.239,10.128-48c1.781-14.284-9.064-48.3-9.064-48.3-2.022-6.94-6.383-21.218-6.383-21.218S487.886,979.753,487.635,979.144Z" transform="translate(-444.906 -902.207)"/><path class="h" d="M388.512,948.759s-1.378,2.95-3.809,7.867c-1.482,3-4.043,5.348-5.876,9.02-3.47,6.95-5.125,14.239-3.206,22.505,0,0,7.174,27.475,6.89,37.516-.1,3.7-1.372,10.374-2.182,14.884-.716,3.987-.465,33.566-.465,33.566l9.688.188,7.8-48.514,5.818-43.011,6.48-24.127Z" transform="translate(-365.109 -876.684)"/><path class="j" d="M734.029,524.79c4.718-5.691,5.886-12.932,10.453-18.794a25.814,25.814,0,0,1,7.447-5.968c10.876-5.577,21.275,2.688,23.039,14.182A60.966,60.966,0,0,1,774,536.073q-2.568.015-4.968-.1l-.812-5.187-1.079,5.033c-9.442-.906-19.279-3.373-24.858-6.043l1.011-4.888-2.938,3.917A46.583,46.583,0,0,1,734.029,524.79Z" transform="translate(-666.859 -498.243)"/><path class="l" d="M780,749.229s20.555,12.627,25.489,14.524c3.86,1.484,23.67,6.549,24.39,6.746s8.351-5.677,8.775-4.548-4.06,2.8-3.355,3.985,12.313,3.824,11.845,4.572c-.877,1.4-7.165-1.345-7.451-.614s6.826,2.264,6.793,3.655-6.6-2.076-7.091-1.645,5.744,4.078,4.614,4.932c-.613.463-5.466-3.377-5.773-2.534s2.95,4.35,2.191,4.816-2.336-3.3-4.654-4.27-3.5-2.854-7.629-3.327-18.866-.446-26.654-4.007-24.378-10.507-24.378-10.507Z" transform="translate(-703.047 -709.075)"/><path class="e" d="M711.489,726.337S696.906,720.232,693,716.77s-4.455-11.253-.58-13.795,24.522,12.386,24.522,12.386Z" transform="translate(-629.691 -669.976)"/><path class="g" d="M809.179,626.833s-2.373-1.509-2.48-1.58a10.42,10.42,0,0,0-1.654,1.967c-.144.3-.539,3.03-.216,3.174s2.081,1.042,2.245.862S809.179,626.833,809.179,626.833Z" transform="translate(-726.228 -604.931)"/><path class="g" d="M754.062,636.34s8.546-1.273,11.958-4.907l3.055,7.545s-5.191,4.2-5.664,6.889-.8,11.754-.8,11.754l-4.556-2.474S752.839,643.718,753,642.36,754.062,636.34,754.062,636.34Z" transform="translate(-682.796 -610.125)"/><path class="h" d="M465.928,661.588s-9.656-1.55-22.219,7.631-28.529,35.223-33.718,51.075c0,0,22.921,3.9,31.151,1.765,0,0-.94-8.779,1.382-12.022s3.441-9.616,10.6-12.154c3.05-1.081,6.466-1.224,9.692-1.642a13.428,13.428,0,0,0,11.507-10.987l.058-.329a8.119,8.119,0,0,0-.519-4.568Z" transform="translate(-394.662 -635.373)"/><path class="i" d="M831.821,641.466c-1.041-2.84-.9-9.082-.9-9.082l.124-.538c.148-.135.291-.271.424-.413l3.055,7.545A34.851,34.851,0,0,0,831.821,641.466Z" transform="translate(-748.246 -610.125)"/><path class="g" d="M840.038,533.729a8.546,8.546,0,0,0-7.279,3.118c-2.8,3.636-5.828,14.879,1.14,20.992s13.852-.807,14.872-8.143S850.189,533.464,840.038,533.729Z" transform="translate(-747.167 -528.031)"/><path class="g" d="M942.1,611.941c-.832,1.62-2.227,2.518-3.118,2s-.938-2.243-.106-3.864,2.227-2.518,3.118-2S942.933,610.32,942.1,611.941Z" transform="translate(-838.436 -590.384)"/><path class="j" d="M818.567,525.755s-5.978,10.692-10.254,11.186-4.838,6.176-4.838,6.176S805,530.025,809.237,527.5A15.693,15.693,0,0,1,818.567,525.755Z" transform="translate(-725.195 -521.258)"/><path class="g" d="M817.236,597.224c.348,1.9-.352,3.64-1.562,3.889s-2.474-1.088-2.822-2.987.352-3.64,1.562-3.889S816.888,595.325,817.236,597.224Z" transform="translate(-732.997 -578.855)"/><path class="j" d="M740.147,574.735c2.808-5.408,4.112-3.523,3.939-2.776a71.79,71.79,0,0,0-.652,8.051c.192-.018,4.138-1.807,4.138-1.807l.132,2.641s-2.045,6.427-1,10.7a18.953,18.953,0,0,1-7.984-1.84l.257-3.333-2.047,2.29a12.675,12.675,0,0,1-2.9-2.728S737.339,580.143,740.147,574.735Z" transform="translate(-666.859 -559.382)"/><g transform="translate(0 54.336)"><path class="e" d="M0,0H122.008V3.435H0Z" transform="translate(0 19.933)"/><rect class="e" width="38.756" height="43.301" rx="19.378" transform="translate(118.24)"/><g transform="translate(133.435)"><rect class="m" width="38.756" height="43.301" rx="19.378"/><ellipse class="a" cx="12.881" cy="16.339" rx="12.881" ry="16.339" transform="translate(6.875 5.311)"/><path class="e" d="M1265.007,871.079a10.271,10.271,0,0,0-1.277.081c6.514.814,11.6,7.782,11.6,16.259s-5.089,15.445-11.6,16.259a10.271,10.271,0,0,0,1.277.081c7.114,0,12.881-7.315,12.881-16.34S1272.121,871.079,1265.007,871.079Z" transform="translate(-1245.252 -865.768)"/><path class="n" d="M1265.054,910.511a1.567,1.567,0,1,1-1.567-1.567A1.567,1.567,0,0,1,1265.054,910.511Z" transform="translate(-1243.731 -897.575)"/><path class="n" d="M1265.054,1019.453a1.567,1.567,0,1,1-1.567-1.567A1.567,1.567,0,0,1,1265.054,1019.453Z" transform="translate(-1243.731 -989.088)"/><path class="k" d="M1262.7,910.3a1.554,1.554,0,1,0,.783,1.35A1.561,1.561,0,0,0,1262.7,910.3Z" transform="translate(-1243.73 -898.716)"/><path class="k" d="M1262.7,1019.244a1.554,1.554,0,1,0,.783,1.35A1.56,1.56,0,0,0,1262.7,1019.244Z" transform="translate(-1243.73 -990.229)"/></g></g><path class="g" d="M761.666,782.76s17.858,16.726,22.375,19.614c3.534,2.259,22.188,11.319,22.863,11.661s9.452-3.944,9.644-2.736-4.6,1.959-4.144,3.278,11.457,6.3,10.84,6.951c-1.156,1.213-6.846-2.793-7.279-2.125s6.323,3.638,6.007,5.013-6.137-3.4-6.711-3.076,4.878,5.22,3.582,5.838c-.7.336-4.744-4.467-5.221-3.691s2.047,4.922,1.2,5.231-1.65-3.755-3.756-5.189-2.9-3.548-6.9-4.856-18.655-4.278-25.67-9.4-22.087-15.4-22.087-15.4Z" transform="translate(-685.652 -737.242)"/><path class="e" d="M691.3,720.661l-9.391,10.485s-10.064-7.111-14.071-11.212c-8.858-9.064-3.408-21.452,5.275-15.847C679.5,708.215,691.3,720.661,691.3,720.661Z" transform="translate(-607.457 -669.976)"/></g></g></svg>